<mxfile host="app.diagrams.net" modified="2021-07-15T05:36:44.763Z" agent="5.0 (Windows NT 10.0; Win64; x64) AppleWebKit/537.36 (KHTML, like Gecko) Chrome/91.0.4472.124 Safari/537.36" etag="oQ5U7cqV9TXsG-dZx1ET" version="14.8.6" type="github">
  <diagram id="AdV_o4RWZuRLrpBLb-5k" name="Page-1">
    <mxGraphModel dx="720" dy="321" grid="1" gridSize="10" guides="1" tooltips="1" connect="1" arrows="1" fold="1" page="1" pageScale="1" pageWidth="827" pageHeight="1169" math="0" shadow="0">
      <root>
        <mxCell id="0" />
        <mxCell id="1" parent="0" />
        <mxCell id="ySXLr84Z_otTSBtIHAdZ-7" style="edgeStyle=orthogonalEdgeStyle;rounded=0;orthogonalLoop=1;jettySize=auto;html=1;exitX=0.5;exitY=1;exitDx=0;exitDy=0;entryX=0.5;entryY=0;entryDx=0;entryDy=0;strokeColor=#1A1A1A;" parent="1" source="cPdMfhtVhH6NcS5d2Da3-1" target="cPdMfhtVhH6NcS5d2Da3-6" edge="1">
          <mxGeometry relative="1" as="geometry" />
        </mxCell>
        <mxCell id="cPdMfhtVhH6NcS5d2Da3-1" value="" style="shape=image;verticalLabelPosition=bottom;labelBackgroundColor=#ffffff;verticalAlign=top;aspect=fixed;imageAspect=0;image=data:image/png,iVBORw0KGgoAAAANSUhEUgAAAMgAAADICAYAAACtWK6eAAATxUlEQVR4Xu2dDZAV1ZXH/weHgRk+hpEBQWAGmIgGVMygRoMliiaYIAaIrpYfRAXFmA+iprK6rnEt4uqmrBCjMR8iosZo1IhKYiWUIWQ2JmuMBCIfQgIMaHYUsIyAzOyAdOoO77HDvO73uvud26+73/9WvYKqd++55/zP/c3tvn37PgELFaACngoItaECVMBbAQLC0UEF8ihAQDg8qAAB4RigAuEU4AwSTje2KhMFCEiZJJphhlOAgITTja3KRAECUiaJZpjhFCAg4XRjqzJRgICUSaIZZjgFCEg43diqTBQgIGWSaIYZTgECEk43tioTBQhImSSaYYZTgICE042tykQBAhKjRDuOcxEAEZGnYuRWWbtCQGKS/gwcWTAuFZEnYuJaWbtBQGKQ/m5wZD26QkR+HAP3VF1wHOcsLYMiskLLlpcdAmJb4QL2PeDItrpSRB4psYuq3TuO8xsAKpCYa1FV51yMWe/AdgBJtl8Ajmxos0VkUZLj7Oo7AUlLJi3H4ROOrBfXisiDll2KxDwBiUTmZHcSEI5ssNeIyMJkRw4QkKRn0LL/IeHIenWViCy27KJV8wTEqrzJNl4kHNngLxeRx5OqBAFJauYs++0HjtsXNXd6ccfVZxby5hIR+WmhSn6/dxxnOADT6TkARvtotxPAG5nPShFZ372N4ziODzuHqmzZ+iY2t2zLaVI7oAZN448PYsrUPVtrCZirWEGlD1HfLxzPLP1tp/ULp03yA8mFIvKzEO6Y+wADxOmZz7kATghjp1sbM7oNNK8CeAXAC0FsEpAgaqWoblA4sqH7hGS6iDzvRy7HcT5h2ANwWgYMP80iq0NAIpM6Ph2FhSMgJFNF5EWvqB3H+RyAywFMj48yuZ4QkDhnx4JvxcIREJIpIrKsaxiO48wBYD4ftxCeukkCoi5pfA1qwREQknNEZLnjOF8D8CUADfFViDNIknKj6qs2HAEh6QBQGSYgs+h04MABHDjg4MMDH3b+3zH///Dg/3v06IEjjjgC0kMO/r/HEeiR+X+QLVErV69xda+9/f/Q1t6e811FRQX69e3j2ibP6hZXscIMAtttbMEREBLfYe7bvx8dHR3o6NiHffv2+W7XvWLPnj1RWWk+lehZUZHXjgHkvX+8H7qvrg3PmTTRyw4BUVFY0YhtODQgMbOBAaHDfDr2dc4M2sXMLp2w9OwJA46ZdboWAqKteALsacEx4xKz4AQseTL/4w2fS8CHlNu//0O0tbehrS33Esa2vFVVvVHVuwoVFQdBISC2FY+ZfU04jjt+bGd0b6xZpwKJmSHMdb0Bw8Zs4TcVZlY5CEpvrHp9HS+x/AqX9Ho24MhqUgwk5obbQGHgMJdVcSnmcmtzy5vYtXu3iku8B1GR0Y4Rm3AUA0l7ezv27m3D/hiB0TUD23e827n6Ze5PzApVtpgbd7ebdzPrDB0y2DWJoxpGeCWXN+l2hr0/q1HAEQaSD/buxQcf7PUXRAxq9elTjT7V1Z2e8EFhDBKi4UKUcASBZPpnJmLe9BM1QozURu9evdC/fz8CEqnqljorBRxBILngvE/ghpnjLUVvz6y51PrH+7s6IeleuN3dnu6qlksJRzlAYu5N3tlhXjM5vBAQ1WFsx1gc4Eg7JATEzti1bjVOcKQZEgPInr0HFxjMU/iuJc+eK6+D4+7gG4XW0eg8gcOclZv3nFzzmmz2TUAvl8wT8uxDQC23/TwnSeo9idnPVVs7oKBUPDiuoET2KsQZjjTPJNnYqquq0NdjF2+2DgGxN/7zWk4CHOUASd8+fVBdXZUvVyNFZKvNYcJDG7qpmyQ4ygGSfv36du7h8igPisi1BMSmAl1sJxGOtENiNjqapd7u2+a7pK1RRDbbGiKcQTLKJhmOtENiLrPM5ZZH+a6IzCMgthRAvFergoYdl9Wt19dtcHV9dMMImD1YQYp5pdesalV0e/mqi42xbofXBenDq27ZzyBpmDm6JzcOkGgCYuLr3bsX+vfr5zWO7xORr2gA0d1GWQOSRjjicrmlDYiJa8CAmpyHiF0GdJOI/FkbkrIFJM1wxAESG4D06tULNf09Z5HviMgNBERBgXKAo9SQ2ACkcxap6d95eopLMYdoT1AYHoeZKLsZpJzgKCUktgAp8IR9jIj8VROSsgJEC476UYk6tPDQeNm2Jf9D56B7t8zbi+/sfNd1PHq92ei1gtW3uhqDBw0sOLbNuyNHeu/Tuk5EfljQSIAKZQOIFhwBtE1k1SCQGAg2u7zkFCbwowbV+QLE2B54ZK3Xg8MnROTSMP2X9TIv4Qg2ZPxCUipAzCZGc6nlUv4uIua3T9RK6mcQwhFurPiBpFSA9KqsRE1Nf6/AThSR18NFndsq1YAQjuKGSSFISgWICDCors4ruK+KyL3FRf7/rVMLCOHQGSL5ICkVICayATU1nWcAuxTVvVmpBMQvHDpDCFi7sQXrN+SuEJkzdIOW7M8QBGm35MXf5VQ/7ph6jGnUuxx3Oy3FAPLB3jZXV90OYDAVzc24V/GzipVta44KMkcGuZSnROTiIPrlq5s6QPzAoSVe1s6Vtz2KV9fkAvLFSybh+osL/mJtUe488NNmfO/Jgz/+2bVMGFePe+ZNLcp2MY1tPQfJ+pTnRr1ZRIL/ZfIINlWAlAIOoysByR1dtgHJ88Bwo4gcWwzcXdumBpBSwUFA3IeibUCyJzK69L5LRGoISBcFSgkHASkNIAVOPukjIiqHFCd+Bik1HASkNICYV3DNE3WPovYabmwAcRzH7GM2EWc/fmbJQYXOrfJjpNg6vAfJVdBrC8pRdQMDv1Holh/zluGgOs+9WxNF5PfF5tW0LykgjuOY3/CeBuBqAEM1AiqFDQISvermMIe6gUd6dXySiKzW8KokgDiOcxWAuUn5kftCQhOQQgrpf29+8/DIWs9LrKNFpFWj10gBcRxnRuZH7idrOB8XGwQk+kwU2I9VISIqvz0XGSCO45h9+lYP+Yo+TQd7JCDRK28OkzOHyrmUd0XE+3F9QFcjAcRxnD8BUH8dMmCs1qoTEGvSehrOc1bWOhEZp+WRdUAcs7ko5YWARJ/gPEeSrhCRs7U8sgqI4zjPAjD3HXnL2k2tWLepFV3/LdTG1venHN+AxfNnBTIfR0A04wgkRhGVx48ZhnGNQ/CR+jqMHjYQDUO8H4ib90HMfYhLuV9EvlyEG4c1tQaI4zh3Abg5n6Mbt27HPYtfwsurNmnFU7QdzYFVys2KmnEULWpIA00fHYHLPt2EpuOOzrFglnjNUq9LUX0v3QogmdUqM3t4lhdW/AW33Pt8SOnsNdMcWAREJ08XT/kYrvvcaYeMFdhmovaQ0HRoC5BfA/Bcyr383xbjz+tzf9FUR87irBAQqz+3ETo59UNr8cgdl3S2N7+tnud83xoR2RW6o24N1QHJPARc5OXgp6+/H9ta39PyX90OAYknICbRJx03HAtunJbvbcKtIjJSc1DYAOSPAE5xc/I/F/4Sj//iVU3/1W0RkPgCYpJ9+9wp+JfzTvXK+3oRGas5KFQBcRznLAC/cXPwv1f+DdfNf8LT95q+VTijqRFjGgbjxDHDNGMMbOvU44P9EdJcxTK23Ip5M9HNL683CsOA/sc1LYG10mywsWU71m95G8t+vx572zs8TS/5ztzOceJRJojISi2/tAH5HoDr3ZybdesjeG3dNle/zz/zBHztynMxqNb1yahWrNbsaAIybsZ8Vz8fnn+FdUCsCRTQ8KY3d+IbDyzFqjfecm058aRG/Oh2z/Phvi0iNwXs0rO6NiDbAZgt6IcVs5w746vuJ0Ka68rH7zJ7F5NbCIid3P3rgufw82b3I66eumcOxjW6bgB/R0SGaHmkBkjmfQ7X1QOvJd3q3pV48luz0ThCbeuMli6B7BCQQHL5rrzjvT347Fd+gPf35J6c8h9fmIqLPtXkZau/iOz23VGeipqA1ANwvcP7r0XL8OjSV3LcmD55PO788gUacZTUBgGxJ//XFyzBL5rX5HRg4DCQeJQGEXG/ng/oqiYg4wGscuv/spsfxqoNudeTt8yegsvP91yRCBhK6aoTEHvaL3z2ZSx4bHlOB+byylxmeZT4vTCVbwUr6I2nPbntWCYgdnQ1Vs3K2lW3Pebawdolt3l1fLaIrNDwSnMG8VziJSD+UxVUK81lXv9eRleTgAR85hBdavz3xBnEv1ZBaxIQAnLYmOEMcjhCBISAEJA80woBISAEhIAE2z4R9Dq11PW99k+ZvVNBT3fnJRYvsQ4p4LW/qNQDvpT9ExACQkDyEEhACAgBISC+J2nepKfgJt13tn1U5AzCGYQzCGcQH38qDlbhDMIZhMu8XOZN/zKv1o948hKLl1ipu8TiXizfV0yBK/ISKwWXWAQk8Lj33YCAEBDeg/AehPcgfv9k8h6E9yC8B+Eyr9+/F1zmDXpIm29lI6yY78C1oPEFnUE0+45QMt9d8R4kBfcgvrPto2JQQHyYTHQVAkJAirpJT/To9+E8ASEgBISrWOlexfLxh9B3FV5icRUrdatYvke/j4oEhICkDhBzNpVXCfrKrZetk8fVe57urtW3D34jr8J7kBTcg2huNQk6AnlwnKtiPFkx6ECyWZ+A2FOXMwhnkKJGF2cQziBFDaAoGnMGsacyZxDOIEWNLs4gnEGKGkBRNNY8OC6ovwYQr/1Yi+fPCmoudvU5g6RgBondqEqRQwSEgKRoOOuHQkAIiP6oSpFFAkJAUjSc9UMhIAREf1SlyCIBISApGs76oZQ1IPpy+rd44bRJuOPqM/03iKhmHHfz3r6oGc8s/W1ECvjvJvW/cutfCv2aBMS/pgTEv1aeNcP8TrpCt6FNEBD/0hEQ/1oREAWt8pngJZZ/gXmJ5V+rwDU5g/iXjDOIf604gyhoxRlER8TUzyCXzr5CR6k8Vn63vBnbtmzNqRHXGSSOB8F5zSD1oxpwxmT7K4E/eegx1wyXBSANo0ZaheTxhx5NFCBWxQhpPB8gl822u2N465YWEJCQifPTjID4USl/HQJSvIYIs8xrLrE4gyiIb9kEAVEQmIAoiBhTEwREITEEREHEmJogIAqJISAKIsbUBAFRSAwBURAxpiYIiEJiCIiCiDE1QUAUEkNAFESMqQkCopAYAqIgYkxNEBCFxBAQBRFjaoKAKCSGgCiIGFMTBEQhMQREQcSYmiAgCokhIAoixtQEAVFIDAFREDGmJgiIQmIIiIKIMTVBQBQSQ0AURIypCQKikBgCoiBiTE0QEIXEJA0QhZDL3oR55ZZvFPocBgTEp1ApqkZAAiSTgAQQKyVVCUiARBKQAGKlpCoBCZBIAhJArJRUJSABEklAAoiVkqoEJEAi4wqIOVeJxZ4Ctk+l4blYlg+Oszc0aDkKBQgIAYlinCW2DwJCQBI7eKNwnIAQkCjGWWL7ICAEJLGDNwrHCQgBiWKcJbaPNAEyHsAqt0xMveFhtLS8lfPVJ6dOwcmnn5rY5NFx+wr8ofllrFi2PKej4cOH4lf3zfFy4CQRWa3hnWgYMTYcx6kHkPtLNQBuvG8ZfrX8lZyuTmgaj/NnXqDlAu2kUIEXnl6CtavX5EQ26YwmPHDTVK+IG0Rkm4YcmoD0A7DLzamFL/4FCx58PueryspKfP662agbXKcRC22kTIE9u/dg4Xd/gLa2tpzIrv/8VHxxepNXxP1FZLeGHGqAZGaR/wUwtLtjr/11O2Z9/Yeu/g6rH45Z116lEQttpEyBF55+DmtXv+4a1cI75+D0sTlDzdRtFZGjtaTQBuSbAG51c27aTY9g82b3WW/c+BMw+bxz0bdfX624aCfBCuzcvhMvPrcUf9+We99qwvrosY145u5LvSK8U0T+XSt8bUA+DuB/3Jx77uW/4dZ7nvD0u6qqCqPHNGLQUYNx9IhhWvHRToIU2PH2drzd+jY2rFmPjo4OT88f/dZcTDhmsNf3p4lI7g1vSB1UAclcZhlADCg5Zd69v8RLK14N6SqbUQHghms+izmfOdFLildE5DRNnWwAYm4oFnk5eeY19+Pdne9pxkBbZaLAqFEj8PNvX5kv2qtF5GFNOdQBycwivwYw2cvR829cjC1b3tSMg7ZSrsDAulo0P/ilfFEuF5FztGWwBcgMAM/mc9Zr6Vc7QNpLvgLnnnUK7p13XqFAZorIkkKVgn5vBZDMLGLWda/N55BZ/r3roZewfsOmoH6zfhkoMHp0PWbPnIjpEz9SKNoficjcQpXCfG8NkAwkfwIwoZBjf1jXipUbW7F2Uys2tbTirbdaCzXh9ylUYOTI4Th29DCMbRyCjx0zJN9KVdfoXxORk23JYRWQDCSOLedplwqIiNUxbNV4Nn2O45j7EXNfwkIFtBRYIiIztYx52YkEkMxMcheAm20HRPtlocDdInJLFJFGBkgGEjOLmLU6zyXgKIJmH4lVwOx7v9/GalXJZ5CuDjiOYx4mfgHAKYlNFR2PUgGz/eL72g8B/QQQ6QzS3aHMWVoXATCfQX4cZp2yUWAHgKfNR0RWlCrqkgLSbVYx75PUdvmUShP2WzoFzB6kzo/W+xzFhhIbQIoNhO2pgA0FCIgNVWkzNQoQkNSkkoHYUICA2FCVNlOjAAFJTSoZiA0FCIgNVWkzNQoQkNSkkoHYUICA2FCVNlOjAAFJTSoZiA0FCIgNVWkzNQoQkNSkkoHYUICA2FCVNlOjAAFJTSoZiA0FCIgNVWkzNQoQkNSkkoHYUICA2FCVNlOjAAFJTSoZiA0FCIgNVWkzNQr8E2GYr4xtf+b7AAAAAElFTkSuQmCC;" parent="1" vertex="1">
          <mxGeometry x="140" y="350" width="70" height="70" as="geometry" />
        </mxCell>
        <mxCell id="cPdMfhtVhH6NcS5d2Da3-2" value="&lt;font face=&quot;Times New Roman&quot;&gt;Sender&lt;/font&gt;" style="text;html=1;strokeColor=none;fillColor=none;align=center;verticalAlign=middle;whiteSpace=wrap;rounded=0;" parent="1" vertex="1">
          <mxGeometry x="100" y="380" width="40" height="20" as="geometry" />
        </mxCell>
        <mxCell id="ySXLr84Z_otTSBtIHAdZ-8" style="edgeStyle=orthogonalEdgeStyle;rounded=0;orthogonalLoop=1;jettySize=auto;html=1;exitX=0.5;exitY=0;exitDx=0;exitDy=0;strokeColor=#1A1A1A;" parent="1" source="cPdMfhtVhH6NcS5d2Da3-3" target="cPdMfhtVhH6NcS5d2Da3-6" edge="1">
          <mxGeometry relative="1" as="geometry" />
        </mxCell>
        <mxCell id="cPdMfhtVhH6NcS5d2Da3-3" value="" style="shape=image;verticalLabelPosition=bottom;labelBackgroundColor=#ffffff;verticalAlign=top;aspect=fixed;imageAspect=0;image=data:image/png,iVBORw0KGgoAAAANSUhEUgAAAMgAAADICAYAAACtWK6eAAAR5klEQVR4Xu2de5Ac1XXGz+mRRGIg0vZqAfNHErTTKx7lqhhDJTEhFi5iY/IoEDY2ZRDGKSFPjxDlR8qOqwiLcdlJoGKDNLMWGBuwQQ4OSiUWdjDlSFQKqER2xZj4oZ1RiA15SLvbswTiGGmnT6oXlJKX3Z1ze/pxe/pTFf+w59x77u87X5+eNxP+gQAILEmAwQYEQGBpAjAIugMEliEAg6A9QAAGQQ+AQDwCmCDxuCGrJARgkJIIjWPGIwCDxOOGrJIQgEFKIjSOGY8ADBKPG7JKQgAGKYnQOGY8AjBIPG7IKgkBGKQkQuOY8QjAIPG4IaskBGCQkgiNY8YjAIPE44askhCAQUoiNI4Zj0AxDPLQ91e5U6s2sEOnSiinksMnxjsusvIiwMQdCelQGMqh2Ru8fXnVYbqv1QZxG+1LiOV9QnQZE51gejjE20lAhKaYaY+ws7tTG91jZ5WvVGWlQdzPtc6WkD7KRJtshofa+ifARF8L2bnLVqNYZ5DIHBTSQ0R0Tv/4sUJhCDCNBzXvFtvqtcogq+9sjVZW0N/AHLa1SUb1WGgSqwziNiZ3E/PlGcmBbewkcGXge1+1pTRrDOJOtG4moXFbwKCO/AgIO79vy2MSewzSbP0Lbq3ya0qbdo4euM/43h/YUJMVBnGbrXcRzT8wxz8QmCdgyxSxxSBfIKLr0BsgcIwACz0wU/euzpuIFQYZarQOM9NIbxj8iIj8mB063DsWETYRYOHThGWUhH5HV5cEgT82rItNLyp3g6zZ3trgVGhvryOGXbqoSG9R6HWesv7d5MkYGzTP3SBuo/1uYvnKsg1j4fPjZW3wJM7tNtuPEcnFPdcSfk9Qr/5lz7gUA3I3yPBEe5uI3LHcGYX5qk6turyJUoSEpZMl4E607iGh9/dalZlvnKlV7+wVl+bfczeIZuTaMGrTFKFsa2s0n2diwZ0DDFK27rTgvDCIgQgaWJggBkALEKrRHBPkVSE1sGCQAnS9QYkazWEQGMSgpQYrFAYx0FMDCxPEAGgBQjWaY4JgghSgldMpEQYx4KqBhQliALQAoRrNMUEwQQrQyumUCIMYcNXAwgQxAFqAUI3mmCADOEGiN15yhW7Os0elS7fY/qZOGMSgQzSwijJBtO9MNsBjHFoEVhrNMUEGdIJo3rpv3PUGCTCIASxFKN6LpYCkDcEE0ZHCBNFxmo/SwCrCVdHgyKUP1WiOW6wBvMUqfecrAcAgSlCYIAagBigUBjEQUwMLt1gGQAsQqtEct1i4xSpAK6dTIgxiwFUDqygTBM9i6YTXaI4JMoATBAaBQXQEDKI0VxNMED3QIrDSaI4Jggmi73qDSBjEAJYiFK+kKyBpQ3CLpSOFCaLjNB+lgVWEq2J0FhhEJ7xGc9xi4RZL102GUUW4mMAgBqJqYBVBdEwQvegazTFBMEH0HWUQWYSLCQxiIKgGVhFExwTRi67RHBMEE0TfUQaRRbiYwCAGgmpgFUH0YxPE4OipheIz6cmhxesgybHESkoCmosibrEG8BZL2R+lD4NBDFpAA6sot1gGxy51qEZzTBBMkNKaBAYxkF4DCxPEAGgBQjWaY4IM4ASZfy/WCnpLnj0aztHjeBYrOQXwLFZyLPFmRSVLTBAlqChMA6sot1h4N69OeI3muMUa1FusCu3VtUk6UUW4mMAgBtprYBVB9OjImCA64TWaY4Jggui6yTCqCBcTGMRAVA2sIoiOCaIXXaM5JggmiL6jDCKLcDGBQQwE1cAqguiYIHrRNZpjgmCC6DvKILIIFxMYxEBQDawiiI4JohddozkmCCaIvqMMIotwMYFBDATVwCqC6JggetE1mmOCYILoO8ogsggXExjEQFANrCKIjgmiF12jOSYIJoi+owwii3AxgUEMBNXAKoLomCB60TWaY4Jggug7yiCyCBcTGMRAUA2sIoiOCaIXXaM5JohlEyQSTYQ26GVePJKp/zX6qUGI9vWTH+Uy8z8Eteqf9LvOUvkwiAFZDaysJoimFoOjFTOU6TNBzftQmsWrOTONBzXvljRr6bU2PpO+gJBavF5ki/h35ruDWvX6tEtXM4ZB7PxMulrAtDspy/WZdwWHvnw1jY+HaW+r5guD2GmQqEHUIqbdTRmsz0Rfkzm6Otjm/XcG2+nZwiC6RszqMcjC5iiDSYR4r8Pda2Zq6/89C3MYXXxgELsNYiRmVt2V6D683yHnmml/3YFEl+2xmPrCA4PYb5ABNskPHcfZNP2B0W9naQ4jnjBIMQxiJGrW3RZvv+ccpk3TNa/v10zibI8JYkBNAyuvxyCD+ZiEO8K8qVMb3WMgU6KhGs3nN8QEKc4EOdYhanETbanEFjv6ijmqX0lsxRgLqRnCIMUzSMFvtzYHvvf5GD2daAoMYoBTA8uWW6zjj6Wp2wBDBqHOBwN/9LMZbNRzCzU7TJBiTpCi3W4x8U0zfvWTPTs3owAYxAC0BpaNE6QoJmGiP5vxvY8ZSJJ6qEZzPEh/VQYNLJsNYvNjEiFqdHxva+odb7iBRnMYZIAMYqdJ+L7Ar77PsHczCYdBDDBrYNk+QSy83Xo48L13GsiQaahGc0yQAZsg1piE6dHgF1ZcRted8bNMu95gMxgkYVhFmSC5m4T5iaPO6y57ccvp0wYSZB4Kgxgg18AqmkFyeUzC9HR3rnv5Czec+awB/lxCNZrjFmtAb7GO7zh1I/TZpsx0MJTuxo5/5vf6XGrR9LU7f/D66S1n/2dSa6u54IVC/QuFSYlz/DqzN6T/blZ1M8Q9IPMhCmljUK8+GXeJXnnDzVZ9xvcaveK0f1czYRoP5+hx7br9xi3WD4X40oZ+D75E/pOB712Q0to/t6y6IcyL+R9iuiKoeY+ap+ozovqT/HaRFHnoD7VIZOB7r/HDogZxmy3pa6eCJB+thCMvblmfyQPaVJqCnXcGtdGH08S9ujm5rkJ8MM09bFkbBlmohITXB/X1d2clUJImYZHrZupj96Zdu9tof4RYbkt7HxvWh0EWqsD89aBW/d0sxUnCJEyybcYf255F3W6z9XdE9PYs9sp7DxhkEQUc4vOm/ep3shSnH5Mw0cdnfO/TWdS7ttl+U0iS+WfWszjbYnvAIItQEaJPd3zv41mLEsckWdc61Gx9ion+OGs2ee0HgyxOvhVUXjiHtpx3NGthTEwixNs7fnVbZjXu/PZKt7v6+0TkZbZnzhvBIEsIIMxX5fU5bZVJmO8NatXrsuyfoYn2e1hkV5Z75r0XDLKkAvJw4I/l9u7X5U2ST21uc/KviPiKvJs2y/0TM0gSv0GRxcGNfqtD+II0X43udd4lTPJocPiBS7P4Qunj63Mb7TcTyxO9aj7290Hph0QN0vG9i7QA84pzJ9pfJBHdh4aY/zqoVTfmVWu07wKTPElz9I6svlD65wwy0d5NIperWORw+6eqa0HQULO1t9cFs3QG+aVGu7qCpaUFysLXztSr92vj04h7xSS8kbl7aZZfKH3sLMON9iZhuU97tpDnzpitnfVv2vi84mCQJcgbTpFnnFWrL5j+w5EX8xIy2ndt81/XZ/2F0vP73jN1cnjkhSdI5A3K838+8L3Nythcw2CQJfCv3f6j88JKZb9aHZFbg/pYar/Pp64jh0C3MfkJYr5JufXPQp47qwjTIzoPDLKMqsPN1peE6Gql8P8bMl0wW/P+WRk/EGFrJlpvdISiB+a/qDuQ3B74Y3+ki80/CgZZ1iCTFwvxYwYyfXfFysolhzevO2SQU9jQoZ0HV3O3u4eIf0t1CKFDoVR+fXbruh+r4i0IgkF6iOA2JncTs+6ZmVfWyuzzInn3j9tsRV9m/W5tHcLkd2rehDbehjgYpIcKI412tcvhY0T8q2rBRL4V1McuVscXMNBtTu4kYv0v2wrdHdQ9fbwlTGAQhRBus/UuInpIEfr/IUL0pY7vbTLJKUqs22z/OZEYPI7g/eHLlbfNfvCM2aKc8VidMIhSsXjvUOVPBn5V++yOspJ8w9zm5G1E/BF9FTLniPO26Xp1rz7HnkgYxEALt9n6OhG9wyCFhGR7xx/L7t20JsUZxrrN1jeI6BKjNKYPBTXvM0Y5FgXDIAZiDG3/4Ru4suKbRHSaQVr0m2DWft+t9hzDzdY+IXqLNj6KG4TbTBjERPHohaPGwauYwwcN0yKTPCIV9jtbRn9inptfxtq7Do6Fc/JlIjnfpAoh+tvO4eevoPGL5kzybIuFQWIo4jYOfJjYud04lekZDmV8pj622zg3h4ThxuRGYf4EEZ1juP0TFVl9yVT9lJcM86wLh0FiSuI2WrcT04fjpDNT0wlX3DpVP+O/4uSnnTPSePa00Jm7SYT8GHtNH5mjs1/a5k3FyLUuBQbpQxK3MfkgMV8Vbwk+IMy3dmqjD8TLTydraOLge1nkJiJZH2sH4V8O6tXnYuVamASD9CmK22zvIZL4XwEkci8J3xVs9Z7qs5S+0t0drd8kluuJWfc5mEV2c6hyZh7vJu7r4D2SYZAE6LoT7UdI5NI+l/qqhHJ/Z+vYnj7XMUof2jH5e+xw9IJm9GJovH8icxJ2z+3ccNYz8RawNwsGSUgbt3FgM7FzVwLL/T07fN/MB9L9ANbw59qbJJRrieitfdUs9I9B3fuNvtawOBkGSVCc4cbB84XD6MXEtX0vK/Q8MT0V/SdS+VbHX9fXTxQMNybPCtm50CG5UIgvJJJf6bdGEWp26l6933VszodBElbnpDtbI6sqtIOYrkx0aaHnhWkvkTzjCE2Flcphp0tTXefI1AkvHZl/xujlk1aNVMJVI2GFRpxu95SQaYTZOZuENhCJ/s2WPQoXoSkW+liw1ftCome0cDEYJCVRhputPxWij6a0fG7LCvH9Mtf9i9lt65/OrYgMN4ZBUoS9ZsfkbzuOcyOR5PqtJwkd8ZsShnd0tq6PbiFL8w8GyUBqd0frSnLoRiJ6cwbbJbwFf49CuaMMt1OLgYNBEm6n5ZYb3jG5TRyOjLIuw23jbvUTDsOdJ6w8+bP/seX0n8ZdpOh5MEjGCp400T5lFdE1JLSRSKybKEz0eMi8i4/Krjy+fC5jOXpuB4P0RJRewPDEj94aSmUjE0dmeX16O/Vc+QiR7CLmXWn/bmHPSiwLgEEsEGTNF59d4/x07orowbwwn89EIxmUNUsiT5LD/+RUnF3T149OZrBn4baAQSyULPqFpi7Rm1joXOLwXCJ6IxGv6LPUWSHexySPC/P+zqGX99P4OUf6XHPg02GQgkg8bxqR0x0OXSFniERccXjIEXKFeCg6BpN0QqaAQ+kQc8AUdkJxAiF5brY+9t2CHNWqMmEQq+RAMbYRgEFsUwT1WEUABrFKDhRjGwEYxDZFUI9VBGAQq+RAMbYRgEFsUwT1WEUABrFKDhRjGwEYxDZFUI9VBGAQq+RAMbYRgEFsUwT1WEUABrFKDhRjGwEYxDZFUI9VBGAQq+RAMbYRgEFsUwT1WEUABrFKDhRjGwEYxDZFUI9VBGAQq+RAMbYRgEFsUwT1WEUABrFKDhRjGwEYxDZFUI9VBGAQq+RAMbYRgEFsUwT1WEUABrFKDhRjG4HMDcJM+2yDgHoSJiD0A1pJTwWbvecTXlm13JrG5K85zBuIabUqYZkgEdrAFP0A0dL/At/jhX99zf+IAtxmS/otCPmDQ4CJHpzxvfdmdaKTdx5YuzKsfIpENme1Z7QPDJIl7QHbS4i+0/G989I+1qm3PX3i0RNf91La+yy2PgySB/UB2pOFr52pp/urve5E6x4Sen8e2GCQPKgP1p7fCHyv39+RX5bIUKN1mDmTb8V/TR0wyGA1ay6nWayJkipkzfbWBqcS/QJwPv9gkHy4D9KumCB4FmuQ+jnZs+AxyKs88TRvso01CKvhWazjVIRBBqGlkzsDXgdZwNKdaN2cHF6sVFgCA/RKukaDoObdsjBu0VfSNYshBgTKQAAGKYPKOGNsAjBIbHRILAMBGKQMKuOMsQnAILHRIbEMBGCQMqiMM8YmAIPERofEMhCAQcqgMs4YmwAMEhsdEstAAAYpg8o4Y2wCMEhsdEgsAwEYpAwq44yxCcAgsdEhsQwEYJAyqIwzxiYAg8RGh8QyEIBByqAyzhibAAwSGx0Sy0Dg/wDv8rBuJXUbLQAAAABJRU5ErkJggg==;" parent="1" vertex="1">
          <mxGeometry x="145" y="520" width="60" height="60" as="geometry" />
        </mxCell>
        <mxCell id="cPdMfhtVhH6NcS5d2Da3-4" value="&lt;font face=&quot;Times New Roman&quot;&gt;Receiver&lt;/font&gt;" style="text;html=1;strokeColor=none;fillColor=none;align=center;verticalAlign=middle;whiteSpace=wrap;rounded=0;" parent="1" vertex="1">
          <mxGeometry x="100" y="540" width="40" height="20" as="geometry" />
        </mxCell>
        <mxCell id="cPdMfhtVhH6NcS5d2Da3-5" value="&lt;div style=&quot;text-align: center&quot;&gt;&lt;span&gt;&lt;font face=&quot;Times New Roman&quot;&gt;(2) Measuring PPG signals synchronously&lt;/font&gt;&lt;/span&gt;&lt;/div&gt;&lt;div style=&quot;text-align: center&quot;&gt;&lt;span&gt;&lt;font face=&quot;Times New Roman&quot;&gt;Generate EI&lt;/font&gt;&lt;/span&gt;&lt;/div&gt;" style="text;whiteSpace=wrap;html=1;" parent="1" vertex="1">
          <mxGeometry x="205" y="460" width="230" height="40" as="geometry" />
        </mxCell>
        <mxCell id="cPdMfhtVhH6NcS5d2Da3-6" value="" style="shape=image;verticalLabelPosition=bottom;labelBackgroundColor=#ffffff;verticalAlign=top;aspect=fixed;imageAspect=0;image=data:image/png,iVBORw0KGgoAAAANSUhEUgAAAMgAAADICAYAAACtWK6eAAAgAElEQVR4Xu1dCXRU1f3+fm9msoIL1gW1rVZAEnClVlGxWgskQdzRYq0KmaCIa3FfcW0FUVyQmkxUXGoVRS2SCVKVoq1bFf1LJoi7RUWpiJJllvfe/Z87SWDezHsz7715k9nuPYfDOXl3+333fnO330IQSSAgEDBEgAQ2AgGBgDECgiBidggEkiAgCCKmh0BAEETMAYGAPQTECmIPN1GqSBAQBCmSgRZi2kNAEMQebqJUkSAgCFIkAy3EtIeAIIg93ESpIkFAEKRIBlqIaQ8BQRB7uIlSRYKAIEiRDLQQ0x4CgiD2cBOligQBQZAiGWghpj0EBEHs4SZKFQkCgiBFMtBCTHsICILYw02UKhIEBEGKZKCFmPYQEASxh5soVSQICIIUyUALMe0hIAhiDzdRqkgQEAQpkoEWYtpDQBDEHm6iVJEgIAhSJAMtxLSHQE4SZEjt+dt4KHwwMXk/QKoixn6hAgMJVEmECgZWDoInXmTGIAP4WmL4BExazaC+9eOPP7yy7rVFG+3BI0olQ2D30ZMGbbPNtmMI0kEgdaRK+AWAwURwJ5RjiBComzF0MbBOCdjMiD4B1HZG7vcirOSNj/z3/JhriOcMQYbXTJlMkOqJ6GAAA5wEigCFAR0A26CCvnAR2lWGV9r9viecbKdQ6+Jj45JchykMVRLYzwDakYABDHA5KjNhE8CWE3M/0ua/f4mjddusLKsEqZ5w1lRS3H9goF+CmKOkMIMHY2BEtJ4Bb5CEJYGljQ8BpJopW7h5ZrmrJ3wxnanSRAAHENgOAGVjnnQQw3+YS34ksPShB7KFd78LzrdPpaz7uWyRIhnQfYQh4H0GdTkrdz3Wvrjx62wNTn+0O+yYi3criWw+kxHGqhJGEssaIYzFZdRBYP8JUflx/b0N61eCVNd5Z4OxcwGq7I/Bd6ANxghfSCpbTojcs7r14f9zoM6sVzGy5ox9GTznqxKNJYafAejXeWAfANYJovsCLb7L7NdhrWS/AFM9bsrBcLkfBtgwa93LrdyM4SsCXlJdtGDN0qZ/51bvkvdm+ISGQyWFTWfAb4iwaz71PbGvtBaKfEbghQffyLQcGSdIVW39PAKdCyTeOhkJ5wKhHMAgAnYnYAQRdnIB20PCdgRsz4DtJSAC4CsV+AoqvmHABpXhOxC+ZwwbGKL/dwBQMoPiNyC2ksi1oG1p48uZaSK9WoeOqz/C48Z5YHQEgJ3Tqy2xtARCGRi2JcIOBOxKhD0BlKWYVV0MaGMMX4DhfwwIMls9izCw+9r9zRfZKm2yUEYJUl1X/y4Y7WemL/w6ZCgBE11unJR4SWimiqR5VqkqViuEj6HiUwZ8pjKE0q6VV8AhVL8GWKvsVmevXfLQGkeqTaOSqhrvbCI2CaA90qhmS9ESAvYAYQ+phwDDJX5YAQZKTtSO6N38q6qKVSrwocrwLmNQzZKG2HuBlub9nemJzlqVqYpH1Ho/ZojeiydN2xIwXpJwtkdCfx9MPlUZlioMbzHmEGEYA/jdPp4No/zG/jxQVtV6TwXDDCL8CkBpKtyTfeeEGEzAKCKc6HJhiENEMNuntSowT1asEOXjgN83xGz9VvJlZAWpqm14j8D2TTUIv5UkXOfpZ/STdOptFfiHouIdVcVXrGcLZz+RzICApLLGtmW++fbrMS457JgzdnMrpTcCbEI6Wyj+4rqrxLeyEsa6gNFSboyJNaLQuwF/0wFO4+w4QUbUNrzCwA5P1tEDJcKsEhd2cloah+t7XGF4SVbxId8nw+yar9cJtgGExTt1/fSiFStmBdPtZnXdtAsANpUxdSSBbD3WVQDYWyIc5SKc4soNQhjh0keUd1Lsu4ixV9tam8eki29seUcJUl3rvR3ATKMODiLCNBfheHduD4he/1sUFctkhgBj2Gx7BChEYP9ijN0aaG1+0Uo1/CaQudxXENhRALa1UrYv7w4A9pMk1LmBw3NklbAix7OyikaFYSPfyRqnuQG/7xIr9SbL6xhBqsc27M886hvEqESvwWoiPFBq68fOKVkdq+d1FXhSVvAOY3ZvYACwz0iSnm9b2nR+so5V13ivB7HTwbAXyPqL9vYEjJEIp7lc2CP/fpd0oZkaUqI/VLprNbEwRaSDA8ub3nViwJ0jSG39BwDpvnMMAtBSloGrKScQSLOO5ogKP1Oxzr6CCh/p/wHsByKKKlUyxgYBtC0j2oEYszyt+c8Q3z6d7JJQ53JsiNNEytniE0Ny9CpfP7G1AX/z3k606Ah6VTX1dxDRxXod4gfAhWXu1NdZTkiTxTreU1UslFmaq0p6AvStFud6XNguvapyvvRnqoozwirCRhRh7M721uY/piuIIwSprvP+CIaBep250EOY7CqMrZVZsB1YVcw2FVWnLfTVwgiMp2VgjsxfUXQSYXOgxbeNaSANMqZNkBE13mcZ4Ti9+mtchFme4iJHLA6ZXFVyYbWgARWQBu8ElCYeO9mGjVC/+V+68zNl+RsjKvgFii5HGJ5ra/Udn7KSJBnSIkjV2NOGwl3RTjp2AT8nwhMFcihPB+C+sn2rypcqbF8Y81PcsCyeLTxHHwrX0D0h7fITSLvvAhqUYiMXkaF+uR7qV99GySKvaoOyeq0TcGrqODWk4HOdQzvjWkZyV1X78r9+aLfRtAgyomaqj5FUr9f4pW4JJ+Xhda5dIM2W2wTgQVnFvxQVX4L4gTxpUf6qPZIIY12EE7L4XlF28VR4xhxkVkzDfMqajyG/tir6T/2fM4aeT8sq5shGq4ja3Nb6gNdux9MiSFWtdx0Bu8U3vhMBfy8tzFsru0AblftMBdYwRHXEPud2j0D0OnaYJGEfiWsYpjVEjnW34saL4RrpnDI2C4YQ+ce/EH7KD/YjVylNLx0bkvGtzm8NA75s9/t2t1u7bfSH1fzhcDeVvKJnSjDVLWGaWD3sjklOlis96ySUHPtbx/um/vdrhBa1QH71P2nV3SireEB3FWGQWXjM2tZHXrXTgG2CVNfVPwlGk+IbLQOwokDfPOwAXDBlPG5UzLoQ0m67gP/687OEuuE7oDsE1tkF1tEV/V/aaQfQjvzlC6CBlXDvVw1pt9Sa9tHVZFEL1A32t11HBmXo6vEQWxRoaT7FzljYJ0ht/ad66tQHSYR7Sor35srOIBR6GX6gd+9XBdfwveA+bJShuOqn69A1ax7Y5k5bkJwfVvCWjr4Wgb5o8zf93E6laRDEy80pEu735pZIOCwP9XzsgCfKWEdA+ulguA89EKWnHqNbWH7jPXTf9hfrFQP4l6piZljnsM4oEmht0lWBStWQLYJUTZx+CMmR1+Ir50YI/xTbq1SYi+8AOFFKzzwJ7gNHJOARblmBkE2PTGOCsq6ZQsTDfv3h35tXWgXfFkF6nC/g0vjGuMewZ8Tbh9UxKNr8NKASZeecFl1R4lPw/scRWWZ5PmNiUMEGnZcmBnaXHfNcWwSpqvH+mwij44U6RCLME+ePop3wdgUvv+a8hJVE/eIrdF1+G1jISNtKv7Vzwwr07EYYw2vtrb5DrfbRFkFG1Ho/YsBe8Y3VuwgNRaxaYhV8kb8HAWnwjqi4aSZokNbMJfTwYoSfXW4JpiZZRbPOdS8BH7fZMMu1RZDqWu933OlIfM9vcUs4Wrx/WBpQkbkHgZITxqH0Dydo4OAv7V2X3Qa2ybzL3hdlFVfrv6pvDPh93GbMUrJFkKra+hAh0TDq0RJ3vxv4W5JWZM5pBCpuvSR6FRybgk1/Q8T/T9P9/kgFTg8navgysHC7v9myMwtbBKmu9fK7tISyr5a4IRYQ02MpMsYh4D5oX5RfOV3zV/nN99D9Z/PXvnzxOFyHINwOLeD3WTY+s0yQ6kmTBqBj2wSzbN7yv8UVr5j06SDgdmPgY3cCnq16fPyQ3vH7iwHVvMnmoUEZurkH/DAwsGiRJcUvywQZWTttLxXqR/E4cK3TlUJBMZ3pIcoCKJ9ZD/dhv9Rg0X3zfMjvrDaNzxEhGWEdxUUJ0pDV/saPTVdkx2mx0SMhNydcLlYQK9iLvDoIeH4zGmXnnaH5El68DKFHnzWN19igrOt5hrk9o9uXLHjddEV2CDKi9uyJDMrf4xvZmYDnxApiBXuRVwcBruxY+ZebNV8ir7yF4J3mQ4QcF5KjvprjE8F1rNXAPJa3WDzoDVR3c3zjw4jwsHhFF5PeAQQGLl6gqUVp/whdV881XfMZIQVr9QzRJLneajAeywQZUdNwLiOW4EpzP4lwv3hFNz2IIqMxApVzr4a051YbJ/4e0jntatOQnR1W8J6eVi+jGW2tTfeZrsjOFmufmvpJCtGT8Y3sRYTHxApiBXuR1wABPevFzSdqr3+Tgff7kIKPdVYQF2OnvN/avMgK8JZXkKHH1h/hiVDCyw33Bv6MOINYwV7kzRBBTgjJ+FrnDGJHo9cyQYaf0DBMCrIP4mXjbmj8giBi0juAQLorSG1Ixvc6BFHLaO81zzRZcqtimSA8CGcJun+Ix4F7C39JXPM6MD1EFekS5DdBGV06MIZRvq3VmC2WCcLbra71JvCTuxh9pQgIwm2y1W+/AyLpRQ8RNDBGIF2CGBlNBfw+y/PdcoFegvCwfxq9lmJQNan482VwDdsTrDuIUPOTiLyUYFQp5r0DCFTedV3U4rAvcbdAHWcl2OcZtmSgaqIG/D7LzhLsEaSmIQxifNHYknhFrxXwClJy6gSNHTVfRbpm3gLW2e3AlBBVxCIwYOHtUY8ofUn55At0XfIn0yCNDsqJNoU27dJtEaSqrqGLGOOBaDXpiTI3bLmOMC169jJW3H4lXL/gIcW3Ju5cgDsZEMlBBCQJA5/SPrPJb/0fuv+kfTw0avFzAKcGddTdibrbW5r4UdlSskWQ6tr6HwBK8JxdqO5GXfsOj/qEik/h519C6AFL1+qWBqcYM9P222JA8581okda/4lg499MwWHshpT9GPA3W47MZY8gNd52EIbH97jWRbi+AE1uS+tPQckEHvlMm7gfp86Zt5gaOJHJHALSHruj8g7tq3lo4WKEnzNnentDRIG/14WrpkWGNYFWX5W5XmzNZYsgVXXevxLD5PjGqiXCA4WmbuJ2o/LeWVGPgXqpo+EqsO++t4q7yG+AgJ7RVPeN90B+N2AKs6lhBQEdNRNGeLy9xXeaqUpiMtkiiJHCYiGGWnOPPhDllzYY4hq8eyEiKyxpUFsdo6LKXzp5Ikom1Wlk7vBeAbYx4elNF5e6oAxd56U2FBV5A7YIMmrUtIrundQE/5DcDuzVArvJKrvwLHh+fbDhJI28+G8E5z9SVJM4k8KWX3se3AdsdSbHicEJYjYdHpShF3Oq/Fup8u23G/XeD5NWbYsgvMbqGm83CNxXtSatLHMn+iM1K12O5aPttolur6gi4cJuS095gJjO82/IsZ7nb3fir3jl99rRfcPdpgTiHrSO0LnBAkMw0OozHsQktdsmiJFvrD+XSDiyQHzzesYdjrJzfq+Bj7vrj33E4h87zrzEtsNlUyNfJJmknX+CygU3aaQNL3kRoQefMoXAClXFFTq+ee36xLK9xeIFq2obniGwhPhvhXSTVX7VuXD/ch/N4HA3/Z7fHqb5G7+j53f1IqWHgPvwX6L8j9qAZXz7yrexZtKsiIJWnRssBnq23d+kdbplpkK7Z5DoFmvC1POhSglrX6FEl+Iu+yvvvl4Lo6IieP9fUXbu6dpfuWdeQOiRZ0xCLrIZIVBy4niUnq79ze26YjaUtZ+aAq0uJGOjXkQ7Sb0gsPSBe0xVEpfJ9hZr5OQLd1Y3da7Xa/T1Ajio63n647bRPGQY1xWKTVZNQu0MVDGUiV9BeODProtvjgbsMZMO0Tt/cKXB7Sp3Wf34Xd+YqSM+j22CRFcRgxf1CzwSTstiwEk7QMSXqbj1UriG/0K7lbplPuS3V0edCmjeRRjD5pPOdaLZoq+DryB8JeGpe24z5H+ZC81m5JMXacZLT5MgXu7dZGL8qO4rERrz+MGQu7/kbjBjE9u4CR3eK6N/KrtwCjy//pXme9eVc6B88EnRT/BsAWBkZsuA5e1+3zi7/UqLIPsc461TFCyNb7wMhBVlljWL7crgeDnuRJlvsWJTuOVlhHw9pvh6t1tW1CGc7jCPr+E+cCSUtZ8g8oKtWJVOd6nf6+PXu3qBEuzYocd2Pi2C8Iqqar3dhMT3kHy+7q285/posMrYFHtY5Ne88eeQdEKHpTOb3KNGovzqGVuqiCVyOvXmU9kXFBXXRRKdjTIg3O73WXZY7SxBarwriTAmHtAjXYQ/56Hiop4ukPLxF+i6VGuPMODh28EjJPUl9sNmdEy5rN/nVfklDQkRmrquuh3KGkseNvu93042eFlYwUod/SsQey/Q0rx/Om2lvYKMGO+9iEm4M74TAwlYnodOHPgVbvw7R+jxJdEQxbGp/Ipz4P7Vfpq/dc64HurX35oaDx6bz33oqOgNDY8RbmdCc+tGbuUYn8JFdu08NiRjs971LsOsQKsvLTWHtAnCB6e6tiECsK0uuXtHLN9us/iKEFUt2WaAduJPvxb8yjE2lRz7W5SedZLmb8F7HzZlhkuV5ajgztFiNIT5CsVXKiupbNpkeGqOSCiifvkNOs+fZaWqvM37V0XF3TrbKwJT2vzNCXPSqqDOEKSmoR3EEuxD9pQIj+fRbZae42TuVZx7F49Prr1+joo5WiW6yPJXEVzwWMox4JOaT+7YxA/Xwb+kLttXhqtlVNx5DahMf4sdnPcgIivfTNmXfM8wOazgU73tFdhHAX/z0HTlc4QgI2sa7laJnR/fGV75g2UShmv9O6Tb54yVL7/8HLgP1m6b+ITnE18vDXj8LlDp1vDbXE+r88IbU/av/NJpcI8+ICGflVVETy08tkL5nTZ033xvyr7kc4Y1UDElqOrEtAWIML+txXdeuvI5QpDdJ108aJvNHevjHTnwzo2RCHPyYBWRBu8U3V5xZPsS6+hE59nXRL2Y6KV41Wyep+OMmWAdxlrVNKAClQtuBt9mxadI60oEGx9PPaYlHlTeMwvSjglhIjVlu667E8pqS37SUredQzkuDSt4RW/1YBT5ceCAXdYtulPXNMSKCI4QhDdYVVP/byJKCA2dLw7l9M4UqWw9Sk6qQenvj9Pg3d372m40CEkNsGQZnTNvBV+JkiVu/svNgGMT3055jtA+XnLFyuB9j1qZD3mV18hBHGPstfbWZsshn/WEd4wgRk6teaPT3C5MdTvWVEYGseLmmXBVD9FO9hRauq6qIai4ZaamTPjpVoQee86wj2VnT4ZnfOLBuq+AGfXuijlXwrWX1sNK5/RrwVc0adedt7YdjqBj+rVg35uzxssIsBmq9AGZoVHm7tkSU7qPg7E1Ojprq2u9/wWw1W99b0v8D0/lsAKj3nWp2fPEwKfv02zLlLYP0XXtHYbTonL+DeDbOaPEuoJRf1vxt2Z9+d2HjUL5TK+muLLmE3RdNSe6mvFVLTaFnnge4ScSlB0yNG37r9qTgzLW6Te3LuD3/dSpnjhNkNsBaH9Se3v6pxI3jrIcY9QpMZPXozexUq0EfTUmuMlUVGyetPVlO7ZlV/VQVNz8R01nuDMC9/7Vpleh8uvOT8jfdf08KO9/gOjN2uzLNYRVv96Azhla7eP+QTVzrbSqKmbpGEb1tjg34PdpFenS6IqjBOH9MHIqt7dEWJijh/V4V5dcjq7Lb4Py4WcpoS393TEoOWWCJp+RDYNeXu5Xq3TqJE15/irfydW8N/2o+bseweLfPMoungrPmIM05YL3LETk5cJxLPG7kILPdOJ/MJvO4ZINsuMEGVHbsIyB6WpP3l/ixn45torE6zJxsFJtkzSrgo5TOW4iys8S8YlrCHNN4djUecEN0ce+kjqt363Q355H+Ent1qjsoikJB3F+COeH8b7Er4/5NXJs4jdZ/EarEFKy1YNAL7T5m3p05R1KjhNkn4lTfi1HpBUUc13a19cDJMKCHFtFuM05186NTaGHnkb47/8wBzGP7f2k1lhNfm0Vuuc0aspz5UeuBBmb+hzP6QWu5GHHui66Gayrx/dv9Bp6vlZrgh++O+rjPH4QoeK2y+EaonUCy33bch+3+Z4MVw/G4PaoR76/5MGE4E7pyOw4QXhnqmvr2wDSbqx73cFz/72OnaDSkZzbG1eWR98TuPeSLYkxdJ43y7ROFS/X5/W9rw6+NeqYermmdyV1R6LUe6rmb7HhjfVut0IPL0b42R6PgqVnnoiS48Zqyz/lR+ivCQGHoXtlvfJN8Nf1fE7Jzx4sEPA3b/UX5JCgGSFI1cT64ymCZ2If3fr6e5gkYW5JbuyzPEcegrILztRAaUdtXc9+hF+7xt5E6b3Sxz7k6anQq199g84LbwJ53KhsvBX8kXELCUNhdExO9BccXW122iGq6xX/GBm9PFAS1cIdmksZr8Zo9QBjYB6c0L6k2XwwdZO9zQhBelaRhjcBpj0tcmMjMCwr88Cym22TAlnJpqfyYVbhMLYdvXNMbD3R1/P7bwGVb3Ujxv73PTqmXaXprp4mcbDpbyCPJ0ExMpVDZ90V6dFnwVetfEzJVw96K+Bv0r6SOiRkxggydFz9ER639DIYS1guxrsIN2TZViTqg4mrlri2Wj6yzZ3oPO96yz6uqKIMAx7VHoJ5cB1OEp64xR+324hNsd/7/s7PDRWztWcK9fMvAbcb0m4xD4AA4leo+PngGjkM/Ao6NsWaDTs0f/qtGsPVg0iNyOpRH77QvDITnckYQXhnR9R4X2aEI+M7znWQHyqRMCSLDuZ0vZbETGqrYCfE9v72O3Sec020Gr2LACOHBHzLx7d+yVLkn28ieFfq8wQP2cBDN8SmVKowVuXuj/yPRBTM1/PYzs+RDCvaWn2Jrvcd6lhGCTJs4lnDPbL7fQYk6OUPkYBHS9JW17cNQ/yE5hWlExBHL0QCP6jzA3vlfTdC2mXHLX1loTA6uUNmnehUrhFDUXGT9jExXsi+h8FUwnPDr3gfXvl45Ts+JOMHHYMoAuSIW95n7ZKH1qTCwu73jBKEd6qq1ruEgGP0OjhzyM/wu+20xkl2BbFSjp8Fyq/UBqbnloD89oof+OwkvfcH/iuvbvg+8fU8RcQk7k2eKzXqJSvRlricFfOuTdD6zac3kdu+2Yin/qvrfo2ruT/f7vcleNWxM35GZTJOkN1HTxq0zXbbfQmwBEfXo0YOxcOz+9+OWw8M/u7B3z/sJm6FOOChOZri/JzBY4fEu/PnAUDDS182bIqb45Zfo2/K0D27EfLrq0x3s3TKySiZeLTp/LmUccPGH3D6Jbdh3foNOt2i4I+bNu227rVFaau0J5M54wSJriIGAXf4t4vOOhENp9RmfVy4giF/QU8ncVel3GVpX+KBPvljnmtvrQO66DvLV8kd/ZVfdwHc+2sDIll54e/rg95hPR0Z+7Ps7KYnsfAZ/chSdgPiWO1/vxCEd6q6tv5bgLZuxHt7WlFWiofnXIaqOPVtq4Kkk5/rXHHdq3ST3mE8vs4+zdtUbfGYJDw2SWyycwXNy0df1ofukarJnPr+dtuHOOPS2QZ9YhsC/mZjlWgHJek3gowY753BJOjagI4f80vcceXZDoplraquq+eC+9dNN3GDJa4vlSxx7yjcS4qZxLdZfLvFUzomtHp2K2baz2aeGTfcixUGEYRJxXlty3yJjgIy0OF+Iwjvu5HVIf92zqH7Y9rQ/g0izbc/yrvt4FshJxL9ZHsMaLw1aVVd18yFEjBHRmnwjuAavDwpgQ/BVdftJv667tq/CjyKbK6n+9d+gftf0z9nOWktaAaHfiXIyKMv3JmVdH3KkBhjnb8mzitx41e5oYViBjvdPDwADH+E1EvF5I7HLoBvqsBFYRl6CjEE6qZwxZ6rX7Tnqd1On/qVIL2ryB1EpH3i7e05fyt+LoctD80ArGeP0VculXqImfoLPc9xQRlG1xeMsTvbW5uTPxI5DFC/E4T3v7q2YS3AdH0WHSERZueYSrwVzEuO+U2CAVRfeatXtFbaLYS8hi5Eo8LRhwF/07D+ljM7BKmpPxqEFwDS2VARri0hTMiiGko6g8BjivDYIvEpqud1jrELoXTaLISyS1UVN4X5I62uD1Hu/GpcoLU50Qotw8JnhSC9q8gigJ2sJx8/Ri7L162Wy4UBj96hcSjHZeSBYLj+lUj6CIwPyjD2vUJPBfxNWrvkfgIyawTpJcmnANO9oM9F60OzY8J1qbhOVWxK5qHRbL2Fmm96WMEqXfeh0a3VZwF/057Zkj2rBBlR03CQSuqrBNrqvzMGibNdEqZ48u9aizu15lZ9sSmVenq2JkC2230wouJ+AyMuBhaWmHR4W2vTW9nqZ1YJwoUeMb7+ZibR1XoA8EhVT5a50C9Ppg6OAFWUo/yGi7Y4dytU31TpQsYDRZwSVBDUPXcApLJb2pY199gMZCllnSBRkhjYjfBvPyfgiTyMM8JDKbh/tW/0EbKQ/eOmM29PDcn43EB5OtN2Hmb7nRMEiZ5H6uq/BiNt3LNeKQ6XCLfn8dWv2cEopnyXhBW8anTuILY+0NI8OBfwyBmC8ICgsoK/E6Ab/bPeLaHBnX/nkVwY5Fzrg2HI5p5LXsXtwrHvP+/ThvTKkhA5Q5DoVqvOey9j0PXbyVlzZwGoomRpnHOmWa5KcnFYhr7baefiejglcE4RJEqS2obXGdjBegJuB6A1X99HnBqxPK+nJihjk4EMBHqjzd+U3CC/n+XPOYJEzyO19V8BpLsHHSYRHhbnkX6eJs40d0ZYwVrD9w72dcDfvKszLTlXS04SpGri9ENIjqzgDgX1RB3nknBjHr6PODds+VcTj2PO45kbpBBze45sX7Ig5zxs5yRBOIhV46ddRpJqaOZ3oceFya6c7X7+zeAM9vhxheGuiNGpA2CqdHn7skYj88EM9ix11Tk9w6pq6x8n0O/0xCgh4E8eCdyVqUi5i8DrKorYumAAAAjkSURBVHBZREZUD1EnMbC/tfubtSF/c0icnCZIz6Hd+w4DEkPCAuAkme1x4xDBkRyaUlu70q4C0yMygkaPgcCqNr9P379RjkiU8wTpObR7uVZCgsMH/o37ElpQ4kaVIEmOTKmebnypAmdFZGw2djO2IeD35bwWUX4QJGo/QvzhSFepsYyAp0rd0Dd0zal5UxSd2awCk8LG17lcCZEY6rJh32F1APKCIFyovcd7L3JJ4NExdfucL+GmrQ5QPuafGJSRxL2ESkya2tbauDAfZMsbgkTPIxMa7mEq03c5yP0/AXhJPCRmdd4dH5Sh7yi0p1tE0h/bWhrzJh5cXhGk9zzCQyoZ+mMdSMDyPNT+zeqsdqjxE0Myvkri2jgX1Netipp3BOm52TJWR+HfBwJYLlYSq3MhrfynhmV8niR4FRHmt7X4DFf/tBrPYOG8JEjvSvIBAEMvF3lt157BAc9E1aeFZHySZOVgQEu736eNlZ2JjmSgzrwlSA9JjHW2+PftQGgt09WezwCUxVnl6WEZHyUNe0hrA/6mvfMVnbwmSHS7Vef9njFwRV/dVAjO6HJ1cp0VkrEm2ZmDsKmtxbd9rvbfTL/yniC9K0kHD+psJHC+mu2aGcBs5akPK2gz1MzlvWKdAX9z/0dHchiQgiBI75kkaKT9G/0uAQ9kMeSbw+OW1erOCSt4Nyk5EAr4fQkBk7LaaZuNFwxBotutWm9ELx5iHzb7SxL+kiMx2m2OV9aLpVo5eNzANr/Pk/WOOtSBgiIIx6SqzqsQg6Fm1l5EeKxUHNztzJ/jQzLWJ7utIqjtLb6CArfgCNK73eL3KoayDSbgGfGYaIkjRwVldCcvwQJ+X8GpjBYkQXpJkjRc7SAALeIx0RRJxgRlRFLkDPh9BTmXClKovrGsrvVyMzbDXzWuu/VCiRvCm5D+7G9nQH0oAtV4MY5eVxXiytGHSEETpOdM0tBFLDGiVR8A3OjqkVI3+jf4m6kf7qxmelpWMUdO+gLId7FywN9UMAdyPcALniC92y1Dgyv+nZ8q55YIy8S+CTI7omCxknSHyh28dbf7fXwRLuhUFASJkqSmoR3Ehicbzas8Eo51Fdw509IETh7laUtV3wf8Pn6MK/hUNAThI5nMSXbfSDe4JNQXqUuhGWEFbyd/AOQwrQv4fT8teGb0ClhUBImuJHX1T4JR0mhFJ7oIl3kK6jo/5XyeElbQnoocDGsCrb6qlJUVUIaiI0jPmWTqA4A0Jdk4HiUR/lQkHhyThSHow4gBr7f7faMLaO6bEqUoCcKRGV4z9W6JpPOToXSgRLivgEnCPY/MiCR/Hef4EMjf5m+qMzWjCixT0RKk50xSfxMjShrBaDAR5ngIQwrMQd0SVcUdYYZug+hOffOciB5pa2k6o8DmvWlxipogPdut+ksA4i5ODa+vuIPgc9wSJhfIi+KciIrFCo+snDQxgOYG/E2JMa1NT6/8z1j0BOFDWDW+3ksS3QfA8NGLAzW2AJxmnxtW8E6qwzhIBtgVAb9vbv5P8fQkEATpxW/fWu/JMvAggKRGPntLhIV5eC7h543zIjK+TrFsAOhggLfd73sivalVGKUFQWLG8YAT638e6qYXAeyVbHi5rfv1HhdG58lNsNnzBoCPS8vZ0asWN39eGNM7fSkEQXQwrKr1vkDA2GTwcm783k04153bLDF53uDnkeXtft+49KdUYdUgCGIwntW19XMY6GKjoKJ9xQ6RCPNydMtl5rzBg2YS2J0Bf3NRH8aNaC0IkuQHr2pi/fEkUzOApHpHu0vA/BIXdk6uFt5vP60WzhsbmZvVty9pfrbfOpdnDQmCpBiwUaOmVXTtrLxBjEYmy8rVWi8oceF4KbuQPqsy3BVWU75vMGKrK75xHfz2241deTZn+7W72R3NfhU1vcaqauqfJqITU9WSzfiJKeIAbuk6Y2xxe2vzSalkEd+T2G0LcBIRGDnee5XiYtcTI904JX0lfkHAvR43BvWT5vzG3ivcZO4/ed8YsbBLoRtWL/PdKsbXHAJiBTGH05Zcw2qmHe6GsghEu+TClotvqe4OK0i5T2JsvQzXpLWtja9aFLmoswuC2Bz+VB7m+6rN5JbL7JaKQG+0+ZsOsSlqURcTBElj+KtrvQsATEumx8Wrd3rLZXZLBYAblTcG/L7paYhZ1EUFQdIc/p6rYDQCpBtktK96p265TG+pwDYwN6aJK9z0BlgQJD38tpSuqvW+RkDKbcz+RDjb48IBFg/wq1Tg/oiCd1lqZapiNW5yaCg11QiCOIhqVW39PALNAOBOVi2BMISAMz0Sfpvi3eQfKsPCiIqPGMBSKagDMgOb3+5vvshBsYq6KkEQh4d/7/H1NS4XPQiGpLdcfc1yJvFoWIMlQhX1MOsDBqxjwCYwhFMvGD1VEdYrCpvywbLmVodFKurqBEEyNPxVNd6VRBiToeo11TKGV9pbfUf0R1vF1oYgSAZHvLrOOxsMfLuTKe+DERDmBVp8l2VQjKKuWhAkw8M/fML0UaTK88HUg4mcgZvxgzpJbzDJPWPN0gVvZ1iEoq7emREragjNCb93rfdkF9gNjKHaLlE4MYgQUEDXf+D3PWWuZZErHQQEQdJBz0bZ4bXTxrmgXqcCBxJDuRkNeSJ0gWGVAunGNf7GF2w0K4rYREAQxCZwThSLqtLvqoyjCO1HUH+qwhW9+ZKgrGeQ/iu52H9K17teFirpTqBtrw5BEHu4iVJFgoAgSJEMtBDTHgKCIPZwE6WKBAFBkCIZaCGmPQQEQezhJkoVCQKCIEUy0EJMewgIgtjDTZQqEgQEQYpkoIWY9hAQBLGHmyhVJAgIghTJQAsx7SEgCGIPN1GqSBAQBCmSgRZi2kNAEMQebqJUkSAgCFIkAy3EtIeAIIg93ESpIkFAEKRIBlqIaQ8BQRB7uIlSRYKAIEiRDLQQ0x4CgiD2cBOligQBQZAiGWghpj0EBEHs4SZKFQkCgiBFMtBCTHsICILYw02UKhIEBEGKZKCFmPYQEASxh5soVSQICIIUyUALMe0h8P/NscqMLpZHxwAAAABJRU5ErkJggg==;" parent="1" vertex="1">
          <mxGeometry x="145" y="440" width="60" height="60" as="geometry" />
        </mxCell>
        <mxCell id="cPdMfhtVhH6NcS5d2Da3-7" value="" style="endArrow=classic;html=1;exitX=1;exitY=0.5;exitDx=0;exitDy=0;" parent="1" source="cPdMfhtVhH6NcS5d2Da3-1" target="cPdMfhtVhH6NcS5d2Da3-11" edge="1">
          <mxGeometry width="50" height="50" relative="1" as="geometry">
            <mxPoint x="150" y="320" as="sourcePoint" />
            <mxPoint x="230" y="210" as="targetPoint" />
          </mxGeometry>
        </mxCell>
        <mxCell id="cPdMfhtVhH6NcS5d2Da3-8" value="&lt;font face=&quot;Times New Roman&quot;&gt;(1) Generate key&lt;/font&gt;" style="text;html=1;strokeColor=none;fillColor=none;align=center;verticalAlign=middle;whiteSpace=wrap;rounded=0;" parent="1" vertex="1">
          <mxGeometry x="200" y="390" width="80" height="20" as="geometry" />
        </mxCell>
        <mxCell id="ySXLr84Z_otTSBtIHAdZ-6" style="edgeStyle=orthogonalEdgeStyle;rounded=0;orthogonalLoop=1;jettySize=auto;html=1;strokeColor=#1A1A1A;" parent="1" source="cPdMfhtVhH6NcS5d2Da3-9" edge="1">
          <mxGeometry relative="1" as="geometry">
            <mxPoint x="415" y="510" as="targetPoint" />
          </mxGeometry>
        </mxCell>
        <mxCell id="cPdMfhtVhH6NcS5d2Da3-9" value="" style="shape=image;verticalLabelPosition=bottom;labelBackgroundColor=#ffffff;verticalAlign=top;aspect=fixed;imageAspect=0;image=data:image/png,iVBORw0KGgoAAAANSUhEUgAAAMgAAADICAYAAACtWK6eAAAgAElEQVR4Xu2dC5RUxZnH/9U9M84MTA9P5T2gIuATUHkoKmQ1GoM65KyMj+numcRoTMRg4q6bZLPRPe5m1xCjiZr1FaYfLg/XOCjGKDGMgggqgoIPHsLwBgGZ6YYZmOm+tad6GB7DvbfqPvrOvdN1z+EcDv3VV1/9q37Urbr1IJCPVEAqoKkAkdpIBaQC2gpIQGTrkAroKCABkc1DKiABkW1AKmBOAdt6kO6Vsyf74LtKK4xEPPyQuRCdS1UUigzMp+lBCvIG+ggdCIrhoDg7EQ9f71wUnZsTnVM+FH7cBIoe9kRC6qHQt8mttfX2+HPWi72AEN9itfApSF0yFpribNH4uRXdHh+U71OmEEqnUYJpmnDHwrbpxI+q8yzo/PIqUMzOQgQNILiPTK+tyYLvrLq0reIzPYgHACmtjI0FSV9LCZkMim+KqJvIAUAyPYcPm0X0MGnTAAVjvNaT5AwgPapmD1VSvhkgmAEg30gl5wQg88ofBPArI7qYsJ1GKmprTaTrtCRdHpBet8cDaZ8yg4KBQc8wo7QExIxqqmkeIhW1DETPPF0akNLKmrspIazHGGWlRiQgVtQ7Ka0ExC2D9EAo+hQovduOqpWA2KFixocExA2ABELRhaD02yarNQlgFwXZSSjdRQjZ2RgL3W/Sl2eSUb0xCMnbA3/+bqHCpI6cDSjdNGwlIJ0NSGkw+gkFvUCoMo8bvU9AaxU/fTlZU/2FwbRdwlwXkL6j6jBq+mShgi575GOkmi+SgHRQwA3TvIHKmgYQUipUkcBeUDxJ/HRhY6RqpWAaV5od+7jHoktjgZmpVDcDQueXjwZlHy/JanLLywucrIQuM0gPBCNbAAzhiUeAZhA8CUqeaoyFsjnvzwvFlt/pnPLJ8OFl4NiX7wYA1UanU90KCJ1X/jsAM4+JRVCHfEwj02pZObP+dAlAAsHICwBu46tF/0eB78mDsdBavq37LXS/fBNUG/ly7UZA6Nzy2SCoUqmJ1SjAFCcg8TwgpcGan1GQ/+Q1ZwryQDIWeoRn55XfhZaFGIDEbYDowNFeRY5A4mlASitr7qSEPM1t1AqCiRfCca6dRwyE4GgviyAkbgJEAA7HIPEsICWhyFRC8SqvTfvSrUMb/vcONj7pEo8hOAxA4hZADMDhCCSeBSQQjL4C0Bv0Wn2K+gY0xYO7ugQZAEzBIQiJGwAxAUfWIfEkIEK9B6VTE/Gq1yQcJyig8bqVmQnz41egUP/WYdd3EDYDlUa12jS0BTjaC1gPgmlkeu1qO+vck4Dwew/yy0Qs9LCdQnWmL0s9R8fAj0JCXy7vgVaEQTNTqEN1y2cXIMd7szpQUkMqXo6wf7IBjnbPbN/JFDsh8Rwg/N6DvpqIVd3YmQ3azryF4cgvrAclBKnmMoH82ZLzcgG7NhMjgKz47bs4cvByQd/sf/16zZ7rRCf9x36GXR8NBMD7EGwrJJ4DRKD3uC4RC70hWEGuNhOGI++0zRj/4yEA8WPF77cIQiJe9hE3rsUZY84XSvD5/Drs/VxsWYqQQ9a/feM9DLliIho2L8In0XFOQuIpQEpCkYmEYpmmrgRzEtGwwAdD0ZrpPDtxOAo34dJ7ByC/qDATbfowbIfk8gcAf5t77pPc8SVWPXcW107UYOiUJRhy5RXHzB2GxFOABII1DwPkF1raUh+dlIxUvSuqvVvtxOE47UuMm9kHeYUnv3bYBQkhSYz+3lcoGWiswW9b8gE2//1Sy/qWTV6MsqtOPcvAQUg8BUhJMLKaAKorRSnwbDIWvtNypXSyA2E4/AUbMWFmKfxFfVVDtgIJ8e9An+GfY/gNg5BXPNKUJE17/451C1qR3DFB4JXo1CzKrlqEssnXaObtECSeAaQ0XHMxVciHmr0HpTcl41WvmKpMlyQ6ump1FTccf/4GjJvZDfnFA3RtjUJS1OMDDLq8Bf0vGQ8gjxuHiEGqaR22LPkMu94/B4pynkgSDLn8rxh69XVcWyOQmDwwwjOAlFRG/oMQ/FxDtK8SsbCp/ebcSnDQgM4vX8yd0fEXrMf4+/KRVzhMKDQeJARJ9D1/NYZMGYziXvrTvUIZahhRehh7P12MTW+m0ZKcqulq8GULMewa7d87JhSFhKCOTK81fPSUZwAJBCOfae4t7yKDczqvnOq2QX/+Ooy/z4e8ouGG2iqD5JPYB0juPD4uyO++FoMnKhh02YWGfNlh3HpoKT6dux2N2yeCoG1amo13hn7jNQyedIvhLEQhKUBPoyuAvQHInU8XB5oLD2kJR0CmN8ZCLxoW1mUJ6LxytsdBZ56fJDHGxKC5vZxN+z7E4cZBKOrdG0U9DB19lB2p6JfYv55tcQZ6lI0WninrGMzWd1agfjF7LdR9SEWt4fZuOIFWBNncUdires7gVKplq1beXeVQBTq3/DEQ/JhTzdYg4bUir/2+5e13saVO5MOkqf3wngCkRygyRqH4SLXuCHYmomH2hdXzT2b5RwvqoDFTd7yAFnsSzyt1tABb695G/dua50GfUMyPSUXtaDPF9gQgpZWzr6HE96ZqASlWJuLhS8wU3o1pJCSCtVL/97ewdck/CFi/jQKUGx17tPv1BCCBYPQWgM5RF4O8moiFuszaK1ZGCQmn2W956w1sWXqtABwRUlGrtmVXIGmbiTcAqYzcA4I/qJWKgjyTjIXuEi6xRwwlJBoVtfmt17BtqciZZ5bh8BIgvwKB+pmuFA964e4RM1xKSDqotnnRAmxbdpOAlrbA4SVAcq4HaW8EGUiOYPWx7wVarSO/2zZMvH+wQOPxpknz/jX44AlWPt7FPrbB4R1AcmwM0rEFH12Cwma39PdCGFmW7jVMVj0TQXJXmBO2rXB4BpBcmsXSagBCkAy+bD+GXdPba21fKN5Poi+jYbPmLWAAbIfDM4DkyncQXkOhc8tngoCdNKj+jJrejL6jinh+PPn7pjf+D9uX/6Nm7AqmkFtrWS9r6+OJWaxc+ZLOq1k6r5wdlaq+oNDna8KkXxbzfJj6veUg0FAP7P8caDoAtDYBqaY2V3nFQH4xUNwb6Hsu0ONMIO80U9noJko1r8SyR87Wec3M3R4EnLVYlOCGZDS80P5acY/Ho2fwql6SmolywCUbcPa3jS1i5BXvwCZg5/vA/nU8y+O/+4uAM84DBowHivuIpxOxXD5rAVoOac9iKRhm5uBuvaw90YOwAgSCEXaerup+gq76LeTEiuMuhTeyLZbXGA/uAXYuB3ZbOEGH9SL9xwFlVwI+e7aW4MD6ONbMqdQJ39R6q64BSGVE+1tIF1qPpVZZ3Btoew5bjwtC5/DavdDv7FVq3Z+BI22LbC0/JQOAUTcDhbzZWYGcCBrxzr9vAaVaS/TrSUWt2D4ZgeyYiWd6EN6OQhBcn4iGXxcsd6eZHZ2NYrfJih+7w4t23L1NKOxpffzB4Pgkc1SV/c/oaiDAvZ2Cn+/6BU9j92q7Vk6w7QV1UHCf1quZZwDhv2a5f0+68JZafjM5blHYsx7j7rW+E5D1GCseNZKzcdvxPwFOKzGe7sQUrYcW4b1ZIkf/GMmnAQUYprag0VOAlIQi/0UoHtAqudtPNaHzy2szNyXZ+Yz8zg6cfoG15f5Kiu04BBKaW27siZj1IBcGrY9Jlj+6UHfbrrloVccvngKkNBS5mlIs0iy/y7fe0nnlbJ5eZP+CWBX78/fj8p9b/zC44VVgl/p2m5MCKegGdOsHlPQDivu1/XRwJ3BwF5DcBaSP8OPuPxYYrnvmON/H1+tmY+3car6hIYu3SUXtKQfeeQqQttes6PsA1Tlzibj2ZEXbARn2zc8weOK5hppBR2PRcceAS4Gzr9fOqvkAsGlR27cS3nNhGOhh6a1wM5Y8dBAURi9r1YusawBSEoxWEdDZ2iV179m8tgKSd9oBjJ/Z0/Q+7nYBP5sP7OM0ajYLxT4Cijy7PwLWc65t6TMKOHe6iDdtm72fPYHPX7zHmpOTUncNQFiRSoOROqr7qkKeTMRCdopnSz3YBkhBt524oHJA5nXHypPYDqx+Xt/DxPuBfK1rzzWSth4C3pul73f094DAICvRA+tfeR67Vl3NXekslksXAiQUqaAUc/XKTUEfSMaqXHUnoS4gZ13b9n7Pe/ILxex4ftjvW94GtugsXxr+baC/yd3Muz4ENuhcz1I2GSizZTi2EvvXb8CR5GFukZM7+2HPR1oH0nUdQJgQgWDN6wDRPX2PUt/IZDxoYJ0EV2JLBrqAWH8vNx4b6z1YL6L29DwLuEDvo7VAdmviwIEv1Q1Z78F6ESefnStrsHGh1hbcrgVISTB6AwHlHjVKU4f7Jufctc/JetDKy1WApFuBd3UuBx4+Feh/sTXZdq0ENugskZv0r4DPby0PI6lzCZBML6K3/OQE4ahCJyVf6PxT310FCJua/egZ7eY15g6gxNrnFSR3AKue085jwv0Amzp26sk1QJiupZWRP1MCvY00GfkpwfeS0fCfnKoLtXxcBchXnwJf/J+6HP4C4PKf2SPVu78G0i3qvi6+G+h2uj35iHjJRUAyPUkwshGAwB0W9Emfn85qqKmuF9HTbhtXAaI3QGffKNiYyI6Hre1i31rUHqfHXbkKSOltL/Sk/tTXQvVJ6U4QzErEqrR35gk5Mm7kKkC+WgN88WeNHqQQYMvn7Xje/e+2W6/UnrE/ALo7eCh/rgLCtC+5veZy4iNLxeuULKE+ZVYy4tydIq4ChPcN5JIfWd/w1LQP+PBJ7SqZ8BOgwOLiRfEKB3IZEKZTt6rZ/fxpH7uARuCDwjFl6ymwiIC8lO3LP10FSKoZWKbzmWjkd4DTLa7k0OulmPyTfmF94aIExIgCAO58Oj/QXBQFqPF7JoB9IFgGBduJDztAyV6Fpvcm49Xs2mTLj6sAYaVZ+Ufg0Ffq5TrjQmAEd+5DX5N1LwN7PlG3YYNzNkh38sn1HuRErQPB6KMAvc8O/e26XkEXkPNuWY3eI9gGHt7Dth2r30vIS9nx921Lgc1vaac68xpg0GVGvbbZb1/WtnhR6xn2D8DgSeZ8m00lATlZudLKmrspITM0b6YSFNoRQARjAUEdeo3YhPNvnQxKzxRNpmrH+xbCEl3JNj+aeN55SD/R2DuB7v1NOD4hyaHdbDnLZhz8qgRKi9UTIrrWl3RRZXvdHg+kfcoMCswAqKkpE1cB0l7wor4v4dIfTQWotTN2eKt52ZKQi6oB4hOTnH3zWMM2X2ksYWFe7FjNe7gB+OCJQ6Bpu7405iYg7bXao2r2UCXlmwHCQIGh68dcCQgr2Dk3zke/MdbWjYvsByH+tuXpvTnnQuz5GFgnMFyz4/vHR88sx8Fd7Ippu57cBqRdxdLK2FhK6HcI6E0UOF9EXdcCUtB9CSb89AqRMujaiO4o7D2y7ct3935tS9WpAjRub9tVeGiP9sLEEzO3Y0dhqmknlv1G/wps46JIQDpqlrlXEb6b0bZURfOF2LWAsAJdcs8yFPc2OZI+qgjbKvvRs0DzfuPNykiKot7A2O8DfmtvhVj30jLsWWutzB3jpnic3FI7s+M/27rllhC/5oguGQsZvqPaiPZWbRksfuLvSwntCwV94UMfUNoH8PVOxELftOqfpafzytlRPy/b4euYj17D/4Lzb9PZCyuYG4PjgycEjU2aXXoPwCCx+ix9eAeUtMWVlB2CIBhDpteeclKebYBYLXOupKfzytlFQCanhlRUImQLJv1bKQj33gy+xLyv63wP2has5+huw1vRrg/fw4bXJloJpUPaRhDMJNNra9R8SkBsVFrUVeZSnMMQv3XVB3bahjZUZ3/rbxgw7mrR/HXtmvYCn80Dmmx63ep1DjDiRuPbdrWCXPG793AkoQVIIxRjB/LxToSXgNjSqrLr5OhVbGxJrPoFOvnd3sHE+6+0LQoGCfvQZ8fZvEMni08R8wrQvG8tPnhSe2JFYxzBc6v3uwTEinoOpqVzyx8DwY81s7zknk9R3Fv1cG/TYZo53Z0dWs3WcGXjdPfVf/obEtu0e0o3n+5uuhJkQiEFuAdY9x6+EOfdNlXImVGjliSwfwNwYCNwcDdw+MDJHgp7tk399hkJ9BqRnftBgAN45yH2H7rWKdiq07RGi9rRXvYgVhV0MD3n2KB6XPkrS6exCRdFSR+fEmazUk7sK9+2dC42v6W9AJWgWmugLVwuFUMJiBX1HEx7dBzCLtDRHtyPuWMPSgaaWk7jYFHMZfX5/Drs/fyUo0GPOaOoIbfU2n0cqX3XH5grtUwlooAQHMzR+bd9il7D7R2HiATohA0PEBZDFiCRPYgTlWshD2E4CDmIK/6tu4Ws3J300P5VWPnEGG6QNkMiAeEq3nkGwnCwEM+ZugL9Lh7fedE6kPMnNS+iYcvN3JxshEQCwlW7cwwMwTHsG+9h8BV2fl3unEKL5LpmTgQH1vOPXLEJEgmISKU4bGMIjrLJS1F2lcNb8xwWpGN26/78FPas+SE3ChsgkYBwVXbWwCAci1F2lasXgWZNPYcgsRWQksrYCPjTI6BgJKGkKGvidILjRDzM2UNqPShjcFy1CGWTr7Geq4c9OACJJUBKbn26D/ILbyQUNwI2373npnqjeNARQHjLSdo1GXL5XzH0at2T7d0kX1ZjEYUEMHWHuilAiitj/fOg3Akf7gSFDWuYsyqhdedOATKvnK3h0L9QfPBlCzHsmuwsKbGuVOd4EIOkgVTU9jQaoGFAMieq5woY7Wo6BwjVrcCiXvW4dIa55STbl/8F9W+VQUmdB3/Bepx+7noMveYs5BePMtpobLFnhy5sfH0rDmzqC5oqQrfT12DUdD+Kewve9XZCFOxo0+W/24t0i+5xSKSi1nB7N5QgEIw+DtB7bRHIS06cA4TtaLtIV5qSIasxplp8LwlztvnNWmx7j+1mPPUpPmMJhl/nR+lQe7ewahVix4e7sXNZE5oPqB1Z1ICLQh+hdNg3hJtH6nALVjy+A+nDwzhpTC1mFAYkEIzuNntsjnBh3WroFCBzyifDB7beSv8xAokeHCfm4j9tIwZP2IEBE8Yhr9DeCRbWW2x5ZxX2rh0ApZW3VqwBF4XXonQof+o6ffgglj/+FdKHeeeDsV2Dk9W21PKkFgIkEIysBdA11/jwFGK/OwRIJqv55VWg0LnF92jAIpCIwnGSBiSBwKAvcea1vRAYWCYij6bNvnVfYNuSJJI7dK7tVktNGjE6/AUCZdorA9KHv8byxw4gfYR37YVpOFhkXEBKgzXPURCjl8mtoiCNlsR1UWJCaZ0Ts1jtRbYFElNwdBC9uNcmjPn+mYavmk7u2I418VakuK89OrVMGnFR1ZcoHTL2FKPW5j14//Ek0kfO5jQTS3BwASkJRaYSCs6l15n/9/ZQilk+0I8bi1vexTN3NbmofXsyFEuQ2AFHu2p5xVtw2T+J9ySppr9j2ayLAaq+PdhIbVAkMOZ7WxAYdPyY+VTzVqx4/AjSR4ZnGw4uIIFg9BWA3qAbCMGbPp9yV2fd2mREb6/ZmoLETjjaBRtVkULfkXlC+m1Y+DfsWmnPARKZDEkCY767EyWDRiJ9eCOW/05BuoVzxCMs9xztZdV8xRLpPQjBrMZo+J+EhJNGphQwBEmPgfWas1Wmcj+aaOC4epz1LbHp5fcffwOHG661kt2paUkC59/6NT578QiU1hFO9BxcQALBaASgIZ1gliZiYevHXtqrZJf0JgyJWOkjpKK26qhPdmf4VdxkRgBZ9sjHSDXrT1W3ZRiBghr40QCKOs0TW7jBnWRgW8+hD0jV7MJA2r8XoFobcLYmYmHx91JjhZTWKgrYBEkGjhPdZw6DIJgJAvbv6uMGuwCh2AKCGhTgMTKt9thdKHR++WgbILEdjswLnlprLAlFphEKjRse2ZicTk3Eq16TLdlZBSxCcgocJ4Gid+KjXYDorIeyCElW4NAGJFjz3wTkn1Wrn2B1Ihrmb310tu3kTG50Xjk7IpO/YehkRXThYKa6R6I6AEgmBnM9Sdbg0AakMvIsIbhDvdWRmkQsZPvpETnTwm0oqEFIuHC4BRATkGQVDp0eJPISAb6jXpfKfYlY9WM21LN0YUEBQUiE4HATIAYgyTocOoBEFxNQ1TOIFKpMORivZrMO8ulkBTiQCMPhNkAy8bADvlsys1tqM2KG4Th6F4zmjJ3WSgn1QXpQAtLJbV84ew1IDMHhRkB0IDEMB/OVAYT4VBeCUpA6rftrJCDCTdG9hkcv5mm/HekxUlErcFHgyeVxwyBdS2E6t5yVjU1HN3ScIhatFQmIqFLSTlUBNwNiR5VJQOxQMYd96ALCdjJ278/uJ+E/+9ePhNLaT8PQ1L5wfqZ8CwkIXyNpoaOA7VfDqeclAZGt0JsKSEDUL5nN+iA9c8iDTY8C5W05xWyTmB3cSEA6CZASnSljo1Utv8EYVUzc3hFAKO4jt9R2ykdm145BJCDijbQzLbNyh3vHAmncRe5EuSUgTqjcxfPgXPFmrfRZuIHWSEASECNqSVtNBTIf5Yixu8Z15WQf94DabNwfaKQaJSBG1JK2OaeABCTnqlwW2IgCrgbESEH0bClNPySnee1SM7f8uBaQ3KoGWVq3KiABcWvNyLhcoYAExBXVIINwqwISELfWjIzLFQpIQFxRDTIItyogAXFrzci4XKGABMQV1SCDcKsCEhC31oyMyxUKSEBcUQ0yCLcqIAFxa83IuFyhgATEFdUgg3CrAhIQt9aMjMsVCkhAXFENMgi3KiABcWvNyLhcoYAExBXVIINwqwISELfWjIzLFQpIQFxRDTIItyogAXFrzci4XKGABMQV1SCDcKsCEhC31oyMyxUKSEBcUQ0yCLcqIAFxa83IuFyhgATEFdUgg3CrAhIQB2qm1+3xQMqnTASlE4xnRzcTih2NL1S9ZTytTGFVAQmIVQU56UtDkQpKyX8C9EwrWVGCnyaj4Uet+JBpjSsgATGumXCK0mD0Zgo6XzgBx5BCqU7Gqmvs8if98BWQgPA1Mm0RCEaWAZho2sGpCevzFP9FX79QmbDRp3Slo4AEJEvNozRcczFVyIf2uyfXJWKhN+z3Kz2qKSAByVK7CIQiM0Dxe9vdUzyYiIcfst2vdKiqgAQkSw0jcwkpwYP2u6cPJ2JVv7Tfr/QoexAH24AeIL1KCtfwQvk6efgCNRsK+utkrOrnvPTyd3sUkD2IPTqe4kUPkD6B0z796y++eZ5W1r+cu2rZ66u2X6YOCHkkGQs9kKWwpdsOCkhAstQksgUIAfltYyx0f5bClm4lIM60gWwBApDHErHQfc6UQuYie5AstYGsAULxRCIenpGlsKVbL/QgmcZl8qE+FPiAAkppAYACAl8+xdG/UxRk/u4j+ZQS9ntWHwI6WS0DK2MQEPLHRDT0w6wG3sG5lfpwMk5eXmamx13Zg2RvipQnoTO/WwGEgjyTjIXucibStlxKgtHFWrA7GYeVvChIXTIWmmLUhwTEqGI22FsBhIA83xgL3WFDGMIuJCC+xWpi6UFH1BLoCalQZYroVcyyB9Ge5gVITSIWqhZu3TYYSkAkIDY0I3EXVnoQUMQT8XBQPDfrlhIQCYj1VmTAg0VA5iTi4dsMZGfZVAIiAbHciIw4sAQIwfxENFxhJD+rthIQFwJCCVGdImWVrTWjwgZNHRsDAb0SgE+1kdBsLCY8ISeNxYpWAKEgLyVjoX+02uiNpJfTvC4DRK/ydAfwKkvBS4KRJgIUqfk0MnFgpEExW73pQSuAEJDaxlhomtF4pL05BVw5zWsnIIFg5ACAHl0FEIC8moiFbjRX3TKVUQVyAZBdAPp1GUAoXk/Ew9cbrWhpb06BXACkHkCZ2wAZ0rtkU1pJ56fSJC9FU/mpViW/lSJfUWhBa1rJ39PQfK7GuOnNRDx8rbnqlqmMKpALgKwDcI6bADFaSSfZE7yViIavtuRDJhZWoMsDUhKMfEyAC7sKIGbXFAm3CGl4kgJdHpBAMPo+QC91GhDcPL+gpLC5QWsGzWw7pMB/JWPhn5lNL9MZUyAHAIksATDJcUAABEKRBaCwd8aJKt9KxKv/aqyapbVZBbo8IKyAeuKILqA0I7CeuGb8yd2E5lSzkqrLA2JFHDvSlgajP6DAbwDa3Yo/CjybjIXvtOJDpjWugATEuGaGU/SojF1ESepblPgmgqIYFK0AWinQQnxoBaWthJAWCtIKqmT+rlDSSqC0Uvi2E2BHIhb6i+GMZQLLCkhALEsoHbQrwHul5C3t4aUH51RJ3qLKRCysuo9JrwYlILJ926YAr4FLQHT2LvPEEa0lo4sVRf1KO+sKSECOa5jVLbfWq0p66AwFJCASkM5od57JUwIiAfFMY+2MQCUgEpDOaHeeyVMCIgHxTGPtjEB5qxZYTHorF7Kd3syqCc9N83ZGxcs8c1cBCUju1r0suYACpZU1d1NCnlI3pa8mYlWqi1HlNK+AuNLE+wqUBiPPU+C76iXRPuVSAuL9upclEFAgEIwsBzBe1ZTi0UQ8/FO13yQgAuJKE28rUBSKDMynYFu2u6mWhODeRDT8BwmIt+tZRm9SgZJg5NcE+BfN5NQ3PBEPbpSAmBRYJvOuAt1vj5/r86U/1SnBikQsPEHrd9VXrEAwsgiA+okbBNcnouHXvSuZjDyXFAgEI1sBDNbuPfCg3o1V6mOQysiLhED93Fid97VcEl6W1d0KlIYiFZSS5zg7QDeioHV84vk7vjbUg5SGIs9SCvXbjyieSsTDP3K3PDK6XFWg2+3xC/y+1A8B8gOuBgL/2av2IKWhyG8oheod3uw8JwK6h1BspcAhbhDSQCqQZQWID90pxWgg86ePYHYLErFwOc9WfQwSivwQFE/yEsvfpQKeVIDSRhxJnZl4UfvVqr1cqoAIjPw9qYsMWirAFCA+enZjpOpLETU0N78HgtFXAHqDiBNpIxXwiAK7fdR3XUM8+LFovJqAlIQiUwnFq6KOpJ1UwGuE7FoAAADCSURBVM0KENBaJVXw/eSc2/YZiVP3+JTSYPRmCsrGIn2NOJW2UgHXKEDpTgL/w43x4B/NxMQ9X6g0XHMWTZOfgNAgQErMZCLTSAU6QYFPAbKI+JQnRMcbajFyAWlP1Oe7z5e0tPinEh8ZSynOAMEZlJKCTii4zFIqcJICBOyES2U/CNkHBft8irKg4X+rV9shkzAgdmQmfUgFvKaABMRrNSbjdVQBCYijcsvMvKaABMRrNSbjdVQBCYijcsvMvKbA/wPaVRD11zTEmwAAAABJRU5ErkJggg==;" parent="1" vertex="1">
          <mxGeometry x="390" y="360" width="50" height="50" as="geometry" />
        </mxCell>
        <mxCell id="cPdMfhtVhH6NcS5d2Da3-10" value="" style="endArrow=classic;html=1;exitX=1;exitY=0.5;exitDx=0;exitDy=0;" parent="1" source="cPdMfhtVhH6NcS5d2Da3-11" edge="1">
          <mxGeometry width="50" height="50" relative="1" as="geometry">
            <mxPoint x="310" y="350" as="sourcePoint" />
            <mxPoint x="380" y="385" as="targetPoint" />
          </mxGeometry>
        </mxCell>
        <mxCell id="cPdMfhtVhH6NcS5d2Da3-11" value="" style="shape=image;verticalLabelPosition=bottom;labelBackgroundColor=#ffffff;verticalAlign=top;aspect=fixed;imageAspect=0;image=data:image/png,iVBORw0KGgoAAAANSUhEUgAAAMgAAADICAYAAACtWK6eAAAPO0lEQVR4Xu2daawmRRWGH0QjBIkwYgRhBAOIAiKIDGFkGUAIIDCKgEQjxgXcUDQYiPGHkmgCSiIioijBBZVNBNyIoiCKWwQhJoy7ERT1j0GDRv+45Mz0Dd+98y1Vdaq7q7rfSm6+H1PnVNV7zjPV3dVVvQUqUkAKzFRgC2kjBaTAbAUEiLJDCsxRQIAoPaSAAFEOSIE0BTSDpOkmq5EoIEBGEmgNM00BAZKmm6xGooAAGUmgNcw0BQRImm6yGokCAmQkgdYw0xQQIGm6yWokCgiQkQRaw0xTQICk6SarkSggQPoN9LbATsDTJ36tR38C/jzx+2i/3Rxv6wKku9g/CzgBWD8BhAESUgyQJWBuBb4O/CrEUHV8CggQn37zrB8HrAOOBE4G9svc1M+ALwN3At8B/pvZv9wBAiR/GrwYOA04Clid3/1Uj38A7gBuBL7WUZujaEaA5Avz0cCbgJflc5nk6SbgY8C3k6xltEwBAeJPiEMbMF7hd5XVwxcaUO7O6nVkzgRIesBf0IDx2nQXnVhe3YByTyetDawRAZIW0LcDH0oz7c3qHcClvbVeacMCJD5wdn3/xnizIiw+3sx6RXSmhk6kAvIe4MIaBpi5j/ZI1R7d1lzskbA9elYJUCAFEIPjvc3fWCDZEbgPsN8hlL8ABwD2qzJHgVhAluBYcmmgDB2SFwJDfRJkT+C+L0JmKxADyEo4xgCJLfQ9NPAEegZgC40qUxQIBWQWHEOGxN6TegTYsqXMuQ34XnOZY5c69mfvW9nvHsCeK37t3mfrFvryH2B7QC9EJgKyCI6hQvITwNY6cpXfArcD32x+/5Hg2FbrjwWOy/xul62RHJTQn8GbLJpBQuEYGiS2uPaaTNG3+5dPAeYzZzkYeDNwZian1sfSFz0zDTXczTxAYuEYCiS2AGgLgd7yjQaM672OFtjbbHJuM6t4m7KFRFtQVGkUmAVIKhy1Q+Idt43f7iHeAnyp4yyzmeR8YB9nu2N4Mhks0TRA9gZuGKHQewE/bG5YgwVcUfFHzaXZL1IdOO1sU9Y1wBqHH3swcQjwS4ePwZjOmkHGCMkVztcwPge8qpDMsL0hntVye53G7m9GX+bdg4wJksOA7zqy4cQCNypdC5zhGNPhzWNoh4v6TRc9xRoLJF90bHSya3+7rCmxvA94d2LHbOPVqYm2gzFbBIgNdOiQ2A5AAySl1HBDe3nz0CBlfAaIgTLaEgLI0CGxSyu7xIotNwOnxBr1VN/uj16Z0Lat9Nul1mhLKCBDhcS2yX4+Ifr2fpYdymCr4zWUbZqjglKS3cCy7bujLDGADBGSzySuRNs6hz31qqkcCKRsu/0s8OqaBpqzr7GADA0Sezkwdo+HvWRoB8DVWD6dkOy28GmnP46ypAAyFEjs0exXEqJ+hPORcEKT2UzsEuuuBG8nAV9NsKveJBWQIUByJXB2ZAQ/2LzOEWlWVHU7XC728e0ngDcUNYqOOuMBpHZIfg/sGqnzc4C+XiOJ7OrM6sc3N+wx/h4EdosxGEpdLyC1QpJyw2rvWdk7SkMotr9+/8iB2N6YeyNtqq+eA5AaIUl5a/ci4F3VR3zTAFJe6a9hUTR7eHIBUhskKY931zZv+2YPQg8O7Slc7CHXo3zcmxOQmiCxFWI70SO0DPFRp73Wvl2oAM3JLilvHEQ0UV7V3IDUAsnDzUdsQiNim5/6PrU9tK+h9a4DXh5aufna1c4R9QdRtQ1ASodkK+BfkdH7AHBBpE3p1c8DLonspJ2q8u9Im6qrtwVIyZDY28kPREbtLOCqSJvSq9s7VvYSY0yx7bwbYgxqr9smIKVCkrKCbrvz7EzbIRU7QuhbkQMa3Yp624CUCMnbgA9HJsYugN23DKmkzKR2esplQxJh0Vi6AKQ0SFLWQLrSaVG8cv77KuCvkQ5HtxbSZeBL2plop7bYhzZDS5c6hfYpR73/RToRIJGCxVavFRIBsinSAiQ24xPq1wiJABEgCameblIbJAJEgKRne6JlTZAIEAGSmOY+s1ogESACxJfpDusaIBEgAsSR4n7T0iERIALEn+VODyVDIkAEiDO985iXCokAESB5MjyDlxIhESACJENq53NRGiSn5xtaUZ70qsmCcJT8P2NJkBSV1Rk7I0AqBsS6Lkgy0jDFlQCpHBBBIkDaVWAAgAiS9lJEM8hAABEk7UAiQAYEiCDJD4kAGRgggiQvJAJkgIAIknyQCJCBAiJI8kAiQCoFxE7wOwNYAxwD7J4nH2Z6ybHXOvYgiJaHVLz7fzaH0P0c+B1wYYk9LnElfd/mA5ldH5QsSPrNUPtmycnAH/vtxvLWSwNkfXPE5w49iSRIehJ+otmiDukrCRCD4m5gr55jJEj6DcD9wAH9duGx1ksC5OKCPpApSPrN0GJO0y8FkNXAQ/3GZLPWBUl/Afl784FV++21lAKIPbG6tlclpjcuSPoLypnANf01v6nlUgD5CHBO32LMaF+Q9BOYmxK+5569p6UAciewLvvo8jkUJPm0DPVk32Ox77L0WgRIuPyCJFyrHDUFyISKpc8gS10VJDlSP8yHAKkQEOuyIAlLcG8tAeIAxMRL/WagfTjHPkbpKTkgsS9djanYPWbMfaYAcQKSegOngyD6wTL2MlqA9ASINStIuodEgDg070M8QeIIWIJpHzFO6OZyk1of8+aafgWJO4WCHQiQYKk2r9ineILEEbgI0z5jHNFNzSDTxBIkySkUbChAgqUqawZZ6o0gcQQwwFSABIg0q0op4gkSRxAXmJYS46gRjv0mXZdbUeniqixAHPKVJp5mEkcwZ5iWFuOgEWoGmS2TIAlKoeBKAiRYqjJv0nW55QhggKkACRCp9Jt0QeIIom7SxyueLrf8sdcM4tCwBvEEiSPAQA0x3myEukmPC7ogidNrsrYASdeuqv9dBElaoAVImm4brWoTT5DEB7u2GG8coS6x4gO9ZCFI4rQTIHF6LatdpXjamRgV8SpjrBkkKsZTK2smCdNQgITpNLVWleJNjESQLA5+lTHWDLI4sKE1BMl8pQRIaCZNqVeleFPGIUhmJ0GVMdYM4qB6hqkgmS6MAHHkWpXizRmvINlcnCpjrBnEQfUCU0GyXCAB4si1KsULGK8geUykKmOsGSQgy51VBMkmAQWII5GqFC9gvDsC9imxtQF1Q6rkOFU+pJ026lQZY80gbaTCJp9PAG4BTsjcRK2QCBBHIlQp3oLxXgRc4NBknmmNkFQZY80g7WTwQcAPgMe3436j19ogESCOZKhSvDnjvR443aFHqGlNkFQZY80goakYXu9w4K7w6u6atUAiQByhrlK8GeO9FDjXoUWKaQ2QVBljzSAp6Tjb5knABmB1XrdB3kqHRIAEhXF6pSrFmzKUk4FbHTp4TUuGpMoYawbxpuRy+/OBi/O6jPZWKiQCJDqUjxlUKd6U8X4SeL1Dh1ymJUJSZYw1g+RKyU1+YpMgb+vLvZUGSaw2uT7U6tJYgLjk28zY3rs6Ja9Ll7eSIBEgjlBWKV7Bl1iTXSsFkipjrBnEQfUUU7tBtxv10koJkAgQR1ZUKd6U8Z4G3ODQoU3TviGpMsaaQfKm5HbAI3ldZvXWJyQCxBHKKsWbMd6bgZc4tGjbtC9IqoyxZpD86Xg2cGV+t1k99gGJAHGEsErx5oz3HuBAhx5dmHYNSZUx1gzSTirWMIvYyLuERIA4cq1K8RaM93bgRQ5NujLtCpIqY6wZpL00tBNN7NX37dtrIpvnLiARII5wVSlewHgPAH4aUC+1yt8Au5yzLb7e/+zahqTKGHtFTQ3sSrsqxQsc/O7AvcCTA+uHVnsQOAuwS7lTgeuALUONZ9RrE5IqYyxAnBkVaL4KuBpYH1h/UbU7gHcC901UtJckbSbxnqTSFiQCZFFU5/x7leIljPccwP72SrA1k0eB98/ZlPXSBhI7tM5T2oCkyhhrBvGkUZqtXWq9FTgD2CfQxY+B25rtvPcvsLFVfLvcemKg71nVckMiQBwBqVI8x3iXTHcD1gD7ATs0f08BfgP8uvk1OB6ObMv2xtvl1laRdiur54SkyhhrBnFmUMHmJzWQbO3sYy5IBIgjEFWK5xhvV6YnNpdb2zgbzAGJbQOw7QChRVtuJ5QSIKFpE1/PTpe3yy07s8tTuoZEgAgQT75G2R7fQLJtlNXmlbuERIAIEGe6xpkf11xueRcsu4JEgAiQuAzPUPvYZiaxnY+e0gUkAkSAeHI02faYBhLvS5RtQyJABEhyknsNj24gsTUXT2kTEgEiQDy56bY9qoHEFig9pS1IBIgA8eRlFtt1zTFFT3V6awMSASJAnGmZx/yIZiZ5mtNdbkgEiABxpmQ+88OamcR2QXpKTkgEiADx5GJ220MbSHZyes4FiV32Hensi9tcLyu6JRyUg7UNJDs7R5ULki6+FDx3qALEmQkDND+kgWQX59hyQOLsgt9cgPg1HKKHg4EbM3yMtHpIBMgQ0zvPmGwjl72ivqvTXdWQCBBn9AduflADie189JRqIREgnrCPw9bOGLbLrWc6h1slJALEGfWRmD+/mUnsjC9PqQ4SAeIJ97hs929mkj2cw64KEgHijPbIzJ/XQLKnc9zVQCJAnJEeoflzG0hSD79bkqwKSATICDM8w5D3bSB5ttNX8ZDUDMiFzuDI3K/AR4G9nW6KhqRWQJwxkXlhChQLiQApLFNG3J0iIREgI87IAodeHCQCpMAsGXmXioJEgIw8GwsdfjGQlALIecAlhQZL3epHgSIgKQUQe33BvoehIgUmFegdklIAMVFuyfgNP6XZcBToFZKSALEFpweGE1eNJKMCvUFSEiCm5+uAqzIKK1fDUaAXSEoDxMJpp/3ZB3VUpMBKBTqHpERATBQ7duYywLZ8rlaeSIEJBTqFpFRAJjNiFWD7D7wfo1SWlaHA5RGfv57V484gqQGQMsKqXuRSwB7G2Gkpod+I7xUSAZIr7PITo0A1kAiQmLCqbk4FqoBEgOQMuXzFKlA8JAIkNqSqn1uBoiERILnDLX8pCnghae2plgBJCads2lAgFZLW4LBBCpA2Qi2fqQrEQtIqHAIkNYyya1OBUEhah0OAtBlm+fYosAiSTuAQIJ4QyrZtBWZB0hkcAqTtEMu/V4GVkHQKhwDxhk/2XSiwBIl9o6Tz0zT1FKuLEKsNrwIGyQavkxR7AZKimmxGo4AAGU2oNdAUBf4P5Mef9r7IHPQAAAAASUVORK5CYII=;" parent="1" vertex="1">
          <mxGeometry x="270" y="360" width="50" height="50" as="geometry" />
        </mxCell>
        <mxCell id="cPdMfhtVhH6NcS5d2Da3-12" value="&lt;font face=&quot;Times New Roman&quot;&gt;(3) Hiding keys using&amp;nbsp;EI&lt;/font&gt;" style="text;html=1;strokeColor=none;fillColor=none;align=center;verticalAlign=middle;whiteSpace=wrap;rounded=0;" parent="1" vertex="1">
          <mxGeometry x="300" y="330" width="80" height="50" as="geometry" />
        </mxCell>
        <mxCell id="cPdMfhtVhH6NcS5d2Da3-14" value="&lt;font face=&quot;Times New Roman&quot;&gt;(4) Using key distribution schemes&lt;/font&gt;" style="text;whiteSpace=wrap;html=1;rotation=0;" parent="1" vertex="1">
          <mxGeometry x="420" y="440" width="176" height="30" as="geometry" />
        </mxCell>
        <mxCell id="cPdMfhtVhH6NcS5d2Da3-15" value="" style="shape=image;verticalLabelPosition=bottom;labelBackgroundColor=#ffffff;verticalAlign=top;aspect=fixed;imageAspect=0;image=data:image/png,iVBORw0KGgoAAAANSUhEUgAAAMgAAADICAYAAACtWK6eAAAP7UlEQVR4Xu2de5AcVRWHz+lNtBRJqYjFThIeloAC/oHxAUp2eZSmROWNiKAglm9J7dzOg8eAS2U3gU3m9iZBCvCRlCBEIkpBpFCqhF0gIFCgIIKFiobsBrXiI/LK7kwfq8NihWfNvd13em73r6tS8889557znfky2zM9PUw4QAAEXpMAgw0IgMBrE4AgeHaAwOsQgCB4eoAABMFzAATsCOAVxI4bokpCAIKUZNBo044ABLHjhqiSEIAgJRk02rQjAEHsuCGqJAQgSEkGjTbtCEAQO26IKgmBQgqyYMGCXUTkABHZnYh2JaIZU4+7MvO2OI63JY/JPyJ6sl6v/74k80abhgS8F2TBggX7xHH8IWaeIyIHEtEBRLS3IYdk+SNElIiSPN4pIg9GUfRPizwIKRAB7wTp6+vbm5k/xcyHEdEHiehdrubBzPeJyAPMPNLV1bVhaGjov672Qt7OJOCFIOeee+5u27dv/zQRfYqIksc3tBsnM4/HcbyBmW/SWm9o9/7YLx8CHS1ItVp9NzOfRURfJKI98kH0qrs+yMxrnnvuuTWXXXbZ0x1UF0rJmEBHCqKUOnhKikSMt2Tcc5bp/khEP+jq6lqzfPnyp7JMjFydQaCjBAnD8B0ispCIFnUGnpareFJEhqIourTlCCz0gkDHCKKUOktEFjHz/l6Qe/Uib2Xm5fV6/VaPe0DpOxHIXZCFCxfu22w2LyGi44syGWaub9q0afH69eubRemprH3kKohS6hQiSuTYq4ADuI2ZF9fr9fsK2FtpWspNEKVUIoZv5xqmT4x/E9E5WusrTAOxvjMI5CKIUuo6Ijq5MxC4ryL5k6tery9wvxN2yJpA2wVRSt1ARMdm3YgH+a7VWn/OgzpRYl4n6dVq9THX71KJyO3MPEZEY8y8OXlsNBpjQRBsjqJobNGiRbMmJiZmB0Ewi5lnxXE8O3kkovcQ0ftcPjuS2qIoOsLlHsidLYG2vYIopSTb0v+fLbki91ciklz+8bM0FxgmFz42m81PJJe0MHPy6OK4VWv9cReJkTN7Am0RJAzDMRGpZFj+34noemb+1datWzesXbv2+Qxz70i1cOHCPRqNxjxmTp7MWf9pdKnW+uysa0a+7Ak4F0QpdT8Rzcmw9EsnJyeHV69e/acMc75uqmq12svMfUR0XIZ79mutL8owH1I5IOBUkDAMbxSR5Orb1IeI/DQIgqher9+ZOpllgjAMTxWRRJQPWaZ4eRgkyQikqzTOBMnwc457EjFWrFiRvDWc+9Hf3x9s27atT0SqUyf3qWoSkdOiKLomVRIEOyPgRJCpT8jXZVD1Mq31eRnkyTzF/Pnz9502bdpqIpqXJrmIbA6C4GP1ev2xNHkQ64ZA5oJMXVuVXKyX6vIRZj6+Xq8nn5l09BGG4XdE5Bspi7xRa13Gz4ZSYnMfnrkgSqmfprzw8Lci8snkMwv37Wezg1LqTCJakzIbzkdSAnQRnqkgySXrRPT9FIV+V2v9lRTxuYUmd1KJ4/h3ljeMSOp+logO01o/mFsT2PgVBDITJPmyUxzHd6b4pHy91vozvs+oWq3+lZn3tOmDmdfV6/VTbWIR44ZAZoKkeddKRDZFUZTqnMUNHvOsU9+K/Id55AsRInJqFEVZvMFhWwLidiKQiSBT3yF/wJYsMx9YpJu3KaWOJqKfW/K4X2ud3M4IRwcQyEqQVURke+lEVWs93AEsMi1BKfVtIuq3THqG1vqHlrEIy5BAakGmbs2TnFja3H2k0NckKaWSV5Hk1cTowFW/RricLk4tiFJqKRGda1HlPVrrQy3ivAnp6+t7fxAEG4nojaZFM/OJ9Xo9ecscR44EUgkydcfD5K1N45u6BUFwSqdcPuKSv1LqYiJabLHHBq11JtexWeyNkCkCqQSx/YAsufAwiqITyzCFqcvm72Zm4xtqx3F8wPDw8KNl4NSpPaYV5CdEZPxEZ+a5eV6V2+5hKKXmE9FK032n7ooyZBqH9dkRsBYkuct6EAR/sLiRdKFPzF9rNEqpu4joI4aju0Nr3WMYg+UZErAWpFqtfouZk6tZTY6/T05OfqSdX3YyKc7l2jAMTxKR9aZ7iMiHoyi61zQO67MhYC2IUupqIjrNsIxSvnq8yEgplXyYmtyYu+Uj+YJWFEXGf561vAEWvi6BNIIkf17tZ8JXRI6Jougmk5girQ3DcIWIhIY9/UhrfbphDJZnRMBKkMWLF+85OTn5V5MamPlfExMT3atXr95uElektWEYzhORW0x6EpHHoygy+o/IJD/Wvj4BK0HCMDxBRK43hHu11vrzhjGFW66UGieibpPGms3mHitXrvybSQzWZkPAVpChqd/xMKnis1rrH5sEFHGtUuoqIjL9k+mTWuubi8ij03uyEsTmGqPp06e/9ZJLLvlPpwNxXV9fX98JQRAYvfomv5sSRdFy17Uh/ysJ2AryhMk353Dx3UvBW9xlcq3WOvk5OhxtJmAsyNRXS01/uBLvxOw0WKVUcs/gmQazvk9rndW9uAy2xVJjQcIw/KCImH5wNaS1trlgr5ATCsPwnuQDQIPmntFa23ydwGALLH01AsaC2Hxbjpnn1+t100/dCzuxarWa3Ff4BJMGn3766V2uvPLK5MYOONpIwEaQ5GfTjL4zje82vOIcxPgbmHirt41W7LSVjSBfJqIrTcptNpuHrFy58tcmMUVeG4bhIhFJfoKu5aPRaOy3atWqx1sOwMJMCNgIooiobrK7iMzy6UZwJr3ZrA3D8DQRSa5la/mI43jO8PCw9Y0xWt4IC19CwEYQ45sRaK2N9ynynPr6+g4PguA2kx7jOD5ieHj4dpMYrE1PwPiJa3O3Dgjy0kFBkPRP3HZlgCDtIr3TPhAkB+iWW0IQS3BpwiBIGnrtjYUg7eW9YzcIkgN0yy0hiCW4NGEQJA299sZCkPbyxitIDrzTbAlB0tCzjMUriCW4HMIgSA7QIUgO0C23hCCW4NKEQZA09NobC0HayxvnIDnwTrMlBElDzzIWryCW4HIIgyA5QIcgOUC33BKCWIJLEwZB0tBrbywEaS9vnIPkwDvNlhAkDT3LWLyCWILLIQyC5AAdguQA3XJLCGIJLk0YBElDr72xEKS9vHEOkgPvNFtCkDT0LGPxCmIJLocwCJIDdAiSA3TLLSGIJbg0YRAkDb32xpZWkK339M/Y/lzjSJrGc1hofyGqMMkMYTJmYjqyiQbtsu1Z2cckbsab+Yk3TKNnTGKKtFZiaTBT8hspTzDxQ80Gb5x15JLfuu7R+ZPBdQOm+cdHa8cR8ZlEcqxpLNZ3GAGmP0hM106Pp13xziP6n3JRXWkEGR89bx5RcKHFTzG74I6cGRJgpliIllXmDtQyTLsjVSkEGR+taSKqZg0P+TqOwCNNan5zds+ykawqK7QgO84zJiavI+J5WQFDns4nIExnzZw7sCaLSgsrSCLH89sbtzDToVmAQg7fCMjXKz2Dl6eturCCjI/UfkFMH08LCPH+EmCWz3TPHVyfpoNCCjI2WlvFRGenAYPYQhB4loQ+UOkdeNS2m8IJMn5b7Tjqop/ZAkFc4Qj8stIzYH0OWjhBxkZrDzHR+wo3ZjRkTSDNSXuhBBkbqX2Jmb5nTRKBBSXAv6/0LDnQprlCCbLljtrdInSIDQjEFJ7A8ZWegRtMuyyMIJtuO++gaV3Bw6YAsL4cBETompm9A6eZdlsYQcZHa8kn5ckn5jhA4JUEhLZWegfeYYqmMIJsGa2tE6LkJ6pxgMCrEuAGH9R95JJHTPAURhC8e2Uy9rKulZMqPYPXm3RfJEH+yURvM2kea0tGQKiv0juw0qTrwggyPloTk8axtnwEmOjC7p6BJSadQxATWljrNQFm6u+eO3CRSRMQxIQW1npNAIJ4PT4U75oABHFNGPm9JgBBvB4findNAIK4Joz8XhOAIF6PD8W7JgBBXBNGfq8JQBCvx4fiXROAIK4JI7/XBCCI1+ND8a4JQBDXhJHfawIQxOvxoXjXBCCIa8LI7zUBCOL1+FC8awIQxDVh5PeaAATxenwo3jUBCOKaMPJ7TQCCeD0+FO+aAARxTRj5vSYAQbweH4p3TQCCuCaM/F4TgCBejw/FuyYAQVwTRn6vCUAQr8eH4l0TgCCuCSO/1wQgiNfjQ/GuCUAQ14SR32sCEMTr8aF41wQgiGvCyO81AQji9fhQvGsCEMQ1YeT3mgAE8Xp8KN41AQjimjDye00Agng9PhTvmgAEcU0Y+b0mAEG8Hh+Kd00AgrgmjPxeE4AgXo8PxbsmAEFcE0Z+rwlAEK/Hh+JdE4Agrgkjv9cEIIjX40PxrglAENeEkd9rAhDE6/GheNcEIIhrwsjvNQEI4vX4ULxrAhDENWHk95oABPF6fCjeNQEI4pow8ntNAIJ4PT4U75oABHFNGPm9JgBBvB4findNAIK4Joz8XhOAIF6PD8W7JgBBXBNGfq8JQBCvx4fiXROAIK4JI7/XBCCI1+ND8a4JQBDXhJHfawIQxOvxoXjXBCCIa8LI7zUBCOL1+FC8awIQxDVh5PeaAATxenwo3jUBCOKaMPJ7TQCCeD0+FO+aAARxTRj5vSYAQbweH4p3TQCCuCaM/F4TgCBejw/FuyYAQVwTRn6/CcRyfuXwwaUmTbDJ4k5eu2W0Ni5E3Z1cI2rLmYDQ1yq9A1eYVFEYQcZGahuZ6VCT5rG2ZASYPlGZO3CLSdeFEWR8pHY5MX3VpHmsLReB5qTMmn3U4JhJ18URZPSC04nkKpPmsbZEBEQeq/QOvte048II8uTG/rd3NRpbTQFgfTkICPGKmT1LFpp2WxhBksbHRmvrmOgUUwhYX3wCQvGcmT1LHzDttFCCbBm9oFdIbjeFgPXFJiAiN83sHTzGpstCCZIA2DJaWyd4FbF5LhQ2RkQ+OrN3cKNNg4UT5G939L+rKY3fEdGbbIAgpmgERFd6BkPbrgonyI5XkZHzzxDmtbZQEFcYAndVegYOS9NNIQV54U+tCy4SkgvTwEGsvwREaHMjaPTuNffiP6fporCCTL2rNcRExm/tpQGK2PwJMNGWZld89KyPLv1N2moKLUgCZ3zk/HOIeVlaUIj3hYDc2xQ+fXbvwONZVFx4QRJIT47Uju5i0kS0fxbQkKMzCTDR6u6egflZVlcKQV4Etnnk/FrA3EdEu2UJEbnyJcBENxM1h7p7lo1kXUmpBEngyXUndz3Vvf8XYqETmOgovB2c9VOqbfkeJaGbKZZ1lSMG73e1a+kEeTnIsZELDu6ieL+YuSJCM4LAFWrkTUNAhCZIZCsR/2U6xw/v3rN0S5p8rcaWXpBWQWFdOQlAkHLOHV23SACCtAgKy8pJAIKUc+7oukUCEKRFUFhWTgIQpJxzR9ctEoAgLYLCsnISgCDlnDu6bpEABGkRFJaVkwAEKefc0XWLBCBIi6CwrJwEIEg5546uWyTwP2/EMyOxF84VAAAAAElFTkSuQmCC;" parent="1" vertex="1">
          <mxGeometry x="390" y="525" width="50" height="50" as="geometry" />
        </mxCell>
        <mxCell id="cPdMfhtVhH6NcS5d2Da3-16" value="" style="endArrow=classic;html=1;exitX=1;exitY=0.5;exitDx=0;exitDy=0;entryX=0;entryY=0.5;entryDx=0;entryDy=0;" parent="1" source="cPdMfhtVhH6NcS5d2Da3-3" target="cPdMfhtVhH6NcS5d2Da3-15" edge="1">
          <mxGeometry width="50" height="50" relative="1" as="geometry">
            <mxPoint x="315" y="660" as="sourcePoint" />
            <mxPoint x="330" y="550" as="targetPoint" />
          </mxGeometry>
        </mxCell>
        <mxCell id="cPdMfhtVhH6NcS5d2Da3-17" value="&lt;font face=&quot;Times New Roman&quot;&gt;(5) Unlock with PPG signal&lt;/font&gt;" style="text;whiteSpace=wrap;html=1;" parent="1" vertex="1">
          <mxGeometry x="235" y="550" width="120" height="30" as="geometry" />
        </mxCell>
        <mxCell id="cPdMfhtVhH6NcS5d2Da3-18" value="" style="endArrow=classic;html=1;" parent="1" edge="1">
          <mxGeometry width="50" height="50" relative="1" as="geometry">
            <mxPoint x="443" y="549.17" as="sourcePoint" />
            <mxPoint x="520" y="549" as="targetPoint" />
          </mxGeometry>
        </mxCell>
        <mxCell id="cPdMfhtVhH6NcS5d2Da3-20" value="&lt;font face=&quot;Times New Roman&quot;&gt;(6) Obtain key&lt;/font&gt;" style="text;whiteSpace=wrap;html=1;" parent="1" vertex="1">
          <mxGeometry x="440" y="550" width="80" height="30" as="geometry" />
        </mxCell>
        <mxCell id="ySXLr84Z_otTSBtIHAdZ-9" value="" style="rounded=0;whiteSpace=wrap;html=1;shadow=0;strokeColor=#000000;strokeWidth=0.3;fillColor=#ffffff;" parent="1" vertex="1">
          <mxGeometry x="530" y="520" width="120" height="60" as="geometry" />
        </mxCell>
        <mxCell id="ySXLr84Z_otTSBtIHAdZ-10" value="AQ123QW1234BFE" style="text;html=1;strokeColor=none;fillColor=none;align=center;verticalAlign=middle;whiteSpace=wrap;rounded=0;shadow=0;" parent="1" vertex="1">
          <mxGeometry x="535" y="525" width="110" height="20" as="geometry" />
        </mxCell>
        <mxCell id="ySXLr84Z_otTSBtIHAdZ-11" value="....." style="text;html=1;strokeColor=none;fillColor=none;align=center;verticalAlign=middle;whiteSpace=wrap;rounded=0;shadow=0;" parent="1" vertex="1">
          <mxGeometry x="570" y="536" width="40" height="20" as="geometry" />
        </mxCell>
        <mxCell id="ySXLr84Z_otTSBtIHAdZ-12" value="ION807ASDF12313" style="text;html=1;strokeColor=none;fillColor=none;align=center;verticalAlign=middle;whiteSpace=wrap;rounded=0;shadow=0;" parent="1" vertex="1">
          <mxGeometry x="535" y="555" width="110" height="20" as="geometry" />
        </mxCell>
      </root>
    </mxGraphModel>
  </diagram>
</mxfile>
